{"glyphs":{":":{"x_min":0,"x_max":165,"ha":165,"o":"m 71 201 b 77 201 92 202 94 210 b 99 229 103 248 108 267 b 111 279 99 284 89 286 b 81 287 60 286 57 275 b 51 255 48 234 52 213 b 54 205 63 202 71 201 z m 106 61 b 100 64 92 66 86 66 b 74 66 59 62 56 49 b 53 32 49 13 55 -5 b 58 -12 71 -14 77 -14 b 85 -14 95 -12 99 -5 b 108 11 111 32 115 49 b 116 54 109 59 106 61 z"},"$":{"x_min":0,"x_max":363,"ha":363,"o":"m 264 182 b 245 208 224 231 202 254 b 203 329 206 404 209 479 b 246 463 267 413 275 377 b 277 366 304 367 302 377 b 295 415 280 454 249 479 b 237 488 224 495 210 499 b 211 517 212 535 213 553 b 213 562 191 562 190 553 b 189 536 189 520 188 503 b 175 504 162 504 149 501 b 67 484 26 398 65 323 b 92 271 138 231 178 187 b 178 111 179 35 184 -40 b 177 -41 170 -40 163 -39 b 118 -30 88 17 81 60 b 75 106 95 162 147 167 b 163 169 152 182 140 181 b 57 172 37 73 73 10 b 96 -32 140 -57 186 -59 b 188 -93 191 -127 195 -161 b 196 -171 221 -170 220 -161 b 216 -126 213 -92 210 -58 b 230 -55 250 -48 267 -35 b 343 20 310 119 264 182 z m 179 280 b 178 281 177 282 176 283 b 149 314 121 350 118 393 b 115 432 137 481 181 483 b 183 484 185 484 187 483 b 184 416 181 348 179 280 z m 250 11 b 243 -11 228 -27 208 -35 b 204 30 202 94 202 159 b 210 149 217 138 224 126 b 243 94 263 49 250 11 z"},"?":{"x_min":0,"x_max":335,"ha":335,"o":"m 281 387 b 267 441 218 476 163 471 b 112 466 51 425 50 369 b 49 299 144 287 194 305 b 210 310 191 321 182 317 b 132 300 55 328 80 392 b 97 436 156 470 202 451 b 252 429 240 369 228 327 b 214 276 193 227 175 177 b 155 121 137 61 136 1 b 135 -26 201 -26 205 1 b 215 69 229 136 250 202 b 268 260 296 326 281 387 z m 184 -52 b 174 -45 158 -47 148 -52 b 141 -56 136 -59 135 -67 b 133 -73 132 -79 132 -85 b 130 -98 130 -110 130 -122 b 130 -147 191 -147 194 -122 b 195 -110 196 -98 197 -85 b 197 -79 198 -73 197 -67 b 196 -59 191 -56 184 -52 z"},"<":{"x_min":0,"x_max":365,"ha":365,"o":"m 299 115 b 266 126 233 136 200 146 b 177 153 154 159 131 166 b 158 181 186 193 212 209 b 243 227 279 246 302 275 b 314 289 285 292 277 289 b 237 275 201 253 164 233 b 146 223 128 214 109 204 b 93 196 66 189 55 175 b 29 143 121 126 138 121 b 180 108 222 95 265 82 b 278 78 300 77 311 89 b 321 100 310 112 299 115 z"},"'":{"x_min":0,"x_max":162,"ha":162,"o":"m 107 444 b 108 464 111 484 112 504 b 113 526 60 525 56 504 b 51 481 50 458 50 434 b 50 415 49 393 62 377 b 71 366 119 368 109 388 b 102 403 107 428 107 444 z"},"=":{"x_min":0,"x_max":347,"ha":347,"o":"m 65 214 b 97 209 132 213 165 213 b 198 214 232 214 265 213 b 276 213 297 217 297 231 b 297 245 275 249 265 249 b 231 250 196 250 162 248 b 129 247 91 248 60 237 b 43 231 50 217 65 214 z m 265 178 b 231 179 196 178 162 177 b 129 176 91 177 60 166 b 43 159 50 146 65 143 b 97 137 132 142 165 142 b 198 143 232 142 265 142 b 276 141 297 146 297 160 b 297 174 275 178 265 178 z"},"a":{"x_min":0,"x_max":296,"ha":296,"o":"m 299 96 b 288 72 277 47 260 27 b 256 21 241 1 233 2 b 224 3 219 18 217 24 b 199 75 204 133 207 186 b 208 214 137 215 135 186 b 135 185 135 184 134 183 b 113 196 87 202 60 197 b 5 186 -27 130 -17 75 b -13 49 0 24 26 13 b 46 5 70 7 87 19 b 108 35 119 62 128 85 b 130 91 132 96 134 101 b 138 54 153 8 196 -11 b 262 -40 301 43 320 92 b 324 101 302 103 299 96 z m 94 68 b 89 57 72 19 55 25 b 42 30 42 62 42 72 b 42 105 50 143 77 163 b 93 176 110 165 125 150 b 117 121 108 94 94 68 z"},"L":{"x_min":0,"x_max":482,"ha":482,"o":"m 423 -231 b 408 -179 395 -126 387 -72 b 375 2 368 76 365 151 b 364 178 363 206 363 233 b 406 279 443 332 469 389 b 487 426 502 466 506 507 b 510 538 507 575 486 601 b 465 625 426 627 400 611 b 367 590 353 548 340 513 b 313 434 303 348 299 265 b 298 243 298 221 297 198 b 271 176 243 156 214 140 b 155 108 64 84 15 146 b -29 202 -4 287 22 345 b 38 379 57 411 80 440 b 92 454 104 467 118 479 b 134 493 152 503 169 514 b 179 521 178 530 167 535 b 155 540 140 539 130 531 b 116 519 107 506 95 492 b 83 478 70 464 59 449 b 38 422 19 392 4 361 b -24 302 -48 227 -21 164 b 8 97 89 84 153 99 b 206 111 254 139 297 173 b 297 107 300 41 309 -24 b 319 -99 334 -176 359 -248 b 280 -274 207 -314 143 -369 b 134 -377 158 -382 165 -376 b 224 -326 292 -287 364 -263 b 369 -276 375 -290 381 -303 b 390 -324 449 -320 441 -294 b 436 -278 431 -261 427 -245 b 499 -229 574 -226 647 -238 b 659 -240 669 -227 654 -225 b 577 -212 498 -215 423 -231 z m 385 482 b 393 515 402 554 421 582 b 430 595 445 607 459 596 b 472 586 478 569 481 553 b 487 515 478 476 465 441 b 443 378 408 318 365 267 b 365 266 364 266 363 265 b 363 301 365 338 368 374 b 371 410 376 447 385 482 z"},"3":{"x_min":0,"x_max":432,"ha":432,"o":"m 74 321 b 82 318 100 328 85 332 b 61 340 85 391 92 405 b 102 424 115 442 131 457 b 155 480 195 502 229 493 b 251 488 266 471 266 447 b 265 423 250 400 237 381 b 211 343 176 316 136 295 b 124 289 123 276 133 268 b 146 259 164 259 179 263 b 226 276 268 259 291 216 b 314 174 318 126 311 80 b 304 36 282 -10 245 -36 b 224 -51 197 -60 172 -52 b 148 -44 131 -24 122 -2 b 99 54 125 114 153 164 b 158 173 133 176 128 168 b 97 115 72 52 96 -8 b 120 -66 185 -87 243 -70 b 364 -34 418 125 357 231 b 330 277 286 299 238 306 b 291 356 333 434 277 487 b 220 541 129 494 89 442 b 70 418 21 335 74 321 z"},";":{"x_min":0,"x_max":199,"ha":199,"o":"m 131 209 b 139 231 141 258 142 281 b 143 303 88 303 86 281 b 84 258 83 232 89 209 b 92 195 126 197 131 209 z m 87 74 b 78 49 70 24 63 -2 b 57 -27 50 -52 50 -78 b 50 -95 86 -92 93 -81 b 119 -37 132 17 148 65 b 157 91 95 96 87 74 z"},"J":{"x_min":0,"x_max":905,"ha":905,"o":"m 574 -485 b 653 -463 736 -426 788 -359 b 848 -281 845 -183 826 -91 b 807 -2 778 85 745 170 b 748 171 751 172 753 173 b 803 189 863 213 915 196 b 925 193 945 204 928 209 b 883 225 836 214 791 202 b 774 197 756 192 739 186 b 736 195 732 203 729 212 b 709 263 688 313 667 363 b 646 411 628 461 603 507 b 597 519 589 530 580 541 b 621 554 661 566 703 576 b 753 589 804 600 855 605 b 903 610 969 620 994 570 b 1000 559 1031 560 1027 575 b 1016 620 957 629 918 630 b 866 630 813 623 762 612 b 695 599 629 581 564 559 b 562 561 561 562 560 563 b 552 571 514 567 524 554 b 525 552 527 550 529 547 b 511 541 493 534 475 528 b 385 492 297 450 215 398 b 135 349 52 292 -5 216 b -31 180 -53 130 -21 90 b 4 60 50 52 88 54 b 102 55 103 68 88 67 b 55 66 15 73 -3 104 b -24 142 8 188 32 216 b 86 282 159 333 231 378 b 328 439 432 488 541 527 b 556 498 567 466 578 435 b 595 388 613 341 630 294 b 646 251 663 208 678 165 b 669 162 660 158 651 155 b 562 120 476 76 394 26 b 313 -24 232 -79 163 -144 b 103 -201 26 -289 50 -379 b 74 -470 180 -502 262 -513 b 366 -527 473 -513 574 -485 z m 113 -428 b 83 -398 70 -358 78 -316 b 88 -271 116 -231 146 -196 b 203 -129 276 -76 349 -27 b 433 30 522 80 615 120 b 638 130 661 140 684 149 b 700 104 715 59 729 14 b 753 -71 778 -165 762 -254 b 747 -333 691 -388 622 -424 b 547 -462 459 -482 375 -489 b 328 -492 281 -490 235 -482 b 191 -474 145 -460 113 -428 z"},"V":{"x_min":0,"x_max":1297,"ha":1297,"o":"m -24 265 b -5 207 40 162 99 147 b 166 131 239 146 301 172 b 333 185 361 201 387 224 b 394 230 386 237 381 239 b 372 243 361 241 354 235 b 295 189 228 157 152 157 b 78 158 22 203 1 274 b -18 341 4 411 42 468 b 82 526 141 586 215 594 b 252 598 288 588 314 561 b 339 536 354 504 368 473 b 399 407 423 339 444 269 b 488 131 521 -16 596 -142 b 784 -454 1141 -17 1220 174 b 1268 292 1274 435 1200 544 b 1124 657 987 688 859 674 b 792 666 726 648 666 619 b 637 606 610 590 586 570 b 560 551 533 526 517 498 b 479 427 608 419 647 418 b 727 414 806 429 884 442 b 922 448 961 454 1000 457 b 1016 458 1017 473 1000 472 b 922 467 846 450 769 440 b 730 435 692 431 653 432 b 635 433 616 435 598 438 b 582 441 559 443 546 455 b 517 482 570 527 589 544 b 614 567 643 585 673 601 b 733 631 799 648 866 654 b 930 660 998 653 1056 626 b 1114 599 1157 552 1183 495 b 1240 372 1212 234 1148 119 b 1114 57 1069 0 1022 -54 b 973 -108 918 -159 853 -194 b 823 -209 787 -224 754 -216 b 726 -209 704 -188 687 -167 b 645 -113 618 -45 593 17 b 541 152 509 295 445 425 b 417 484 383 549 327 586 b 270 624 195 619 136 589 b 25 534 -63 389 -24 265 z"},"\"":{"x_min":0,"x_max":233,"ha":233,"o":"m 53 487 b 50 466 49 446 51 425 b 53 408 54 388 69 378 b 77 373 106 372 106 387 b 106 420 108 454 111 487 b 113 509 56 510 53 487 z m 123 485 b 121 464 120 442 123 421 b 126 399 130 383 149 370 b 154 367 164 367 168 372 b 182 387 179 404 179 424 b 179 444 180 465 183 485 b 186 507 127 509 123 485 z"},"7":{"x_min":0,"x_max":357,"ha":357,"o":"m 172 -58 b 174 -87 245 -87 247 -58 b 251 7 258 70 267 134 b 269 149 271 163 273 178 b 279 178 286 177 292 177 b 304 175 315 189 299 190 b 291 191 282 191 274 192 b 279 238 282 284 278 329 b 276 360 271 391 260 420 b 251 445 233 462 210 474 b 160 499 105 482 55 464 b 41 459 58 450 67 453 b 108 467 183 495 211 444 b 223 421 222 389 222 364 b 223 336 222 308 219 280 b 216 250 212 220 206 190 b 195 189 183 188 172 186 b 156 183 166 170 179 172 b 187 174 195 175 204 176 b 200 155 196 134 192 112 b 182 57 170 -1 172 -58 z"},"S":{"x_min":0,"x_max":746,"ha":746,"o":"m -32 259 b -41 208 -23 158 15 123 b 52 88 101 67 147 48 b 233 13 322 -9 411 -35 b 406 -40 402 -46 397 -52 b 369 -88 338 -130 330 -176 b 323 -219 344 -254 386 -267 b 426 -280 472 -273 512 -263 b 558 -251 603 -228 639 -198 b 656 -184 673 -166 676 -144 b 679 -121 665 -102 649 -88 b 611 -54 559 -36 512 -20 b 497 -15 481 -10 466 -5 b 497 27 532 56 570 80 b 590 93 611 105 633 116 b 639 119 637 123 633 126 b 629 129 621 128 616 126 b 552 95 494 53 444 2 b 365 26 285 47 207 77 b 165 93 118 112 83 143 b 45 177 32 224 42 273 b 52 322 84 364 117 400 b 149 435 185 467 224 494 b 305 550 401 587 498 601 b 550 608 610 611 657 586 b 705 562 715 513 695 465 b 659 378 574 307 489 272 b 478 268 467 265 456 262 b 446 260 427 251 431 269 b 433 282 394 285 393 269 b 391 246 416 237 435 238 b 458 239 481 251 502 259 b 545 277 585 301 620 331 b 655 360 686 396 709 436 b 732 476 745 528 715 567 b 688 601 643 615 602 620 b 546 627 490 621 435 610 b 337 589 241 550 158 494 b 77 439 -14 360 -32 259 z m 607 -114 b 627 -133 637 -153 621 -178 b 607 -198 583 -214 561 -225 b 518 -248 462 -265 413 -257 b 391 -254 370 -244 360 -222 b 349 -197 356 -167 366 -143 b 382 -107 407 -72 433 -41 b 444 -44 454 -47 465 -51 b 512 -66 570 -79 607 -114 z"},"}":{"x_min":0,"x_max":379,"ha":379,"o":"m 325 208 b 263 255 244 343 219 413 b 209 442 197 487 168 505 b 146 519 109 525 90 503 b 83 494 105 491 110 496 b 137 523 153 459 158 443 b 166 412 173 381 181 350 b 193 303 209 250 240 212 b 224 204 210 191 201 173 b 184 134 187 85 185 44 b 183 2 178 -42 160 -80 b 153 -95 144 -116 127 -121 b 102 -128 85 -101 74 -84 b 69 -77 46 -79 51 -87 b 72 -121 98 -145 141 -140 b 186 -133 220 -102 237 -61 b 255 -18 255 30 257 76 b 258 98 259 121 263 142 b 265 152 269 163 275 171 b 277 174 281 177 283 179 b 295 177 309 178 319 184 b 327 189 335 201 325 208 z"},"Z":{"x_min":0,"x_max":1173,"ha":1173,"o":"m 1126 -252 b 1007 -269 898 -322 790 -373 b 735 -400 679 -425 622 -445 b 593 -455 563 -464 533 -470 b 508 -475 480 -480 454 -477 b 315 -461 489 -243 527 -198 b 611 -98 711 -13 815 66 b 816 66 817 67 817 68 b 871 72 925 73 979 75 b 985 75 996 77 996 84 b 996 92 985 94 979 94 b 936 96 892 95 849 91 b 940 160 1031 230 1105 318 b 1141 362 1183 417 1164 477 b 1147 530 1092 559 1043 576 b 912 622 763 611 628 590 b 556 579 484 564 413 547 b 348 531 284 515 221 492 b 160 470 98 443 45 404 b 1 371 -49 316 -35 256 b -22 205 32 183 79 174 b 143 163 212 168 275 183 b 307 191 337 202 367 215 b 374 219 374 226 369 230 b 363 236 350 236 343 233 b 281 208 217 193 150 193 b 105 194 38 198 13 244 b -17 301 39 362 82 393 b 134 430 195 456 256 477 b 319 499 384 515 448 530 b 516 546 583 560 651 570 b 720 580 790 585 859 583 b 924 582 992 573 1051 545 b 1102 520 1141 475 1118 417 b 1106 388 1085 363 1063 340 b 1043 317 1020 296 997 275 b 919 203 831 142 746 79 b 711 74 676 67 641 60 b 626 56 636 44 648 46 b 670 50 693 53 715 56 b 710 53 706 49 701 45 b 600 -32 505 -118 428 -218 b 389 -268 351 -321 336 -384 b 329 -412 331 -442 350 -465 b 365 -484 388 -495 412 -500 b 463 -512 518 -499 568 -485 b 623 -470 676 -448 728 -425 b 834 -377 936 -318 1048 -285 b 1076 -277 1105 -271 1134 -267 b 1152 -264 1140 -250 1126 -252 z"},"x":{"x_min":0,"x_max":158,"ha":158,"o":"m 159 94 b 154 69 144 41 125 24 b 112 13 103 14 96 28 b 91 37 88 47 85 57 b 79 80 75 103 72 126 b 90 153 109 180 130 205 b 138 214 114 219 108 212 b 94 195 81 178 68 160 b 65 179 63 197 58 216 b 53 240 -6 243 -7 216 b -9 177 -3 136 7 99 b 9 91 11 83 14 76 b 1 52 -11 28 -21 4 b -24 -6 -2 -7 1 0 b 9 16 17 32 25 48 b 33 33 42 20 55 10 b 80 -8 113 -7 138 10 b 165 28 177 63 182 94 b 183 102 160 103 159 94 z"},")":{"x_min":0,"x_max":352,"ha":352,"o":"m 299 219 b 294 285 286 353 262 416 b 242 470 193 547 124 526 b 109 522 127 513 135 515 b 166 523 180 488 189 466 b 198 443 206 419 211 395 b 222 344 226 292 229 240 b 231 186 232 131 226 76 b 221 27 212 -26 186 -69 b 175 -87 160 -109 138 -114 b 113 -120 88 -103 78 -81 b 73 -72 46 -74 51 -85 b 72 -135 134 -143 180 -129 b 244 -109 275 -52 288 9 b 303 78 304 149 299 219 z"},"&":{"x_min":0,"x_max":530,"ha":530,"o":"m 468 -42 b 412 -26 357 -5 307 25 b 321 51 330 81 337 110 b 339 119 313 120 311 110 b 305 86 297 61 287 38 b 243 67 204 103 175 150 b 191 165 206 179 222 194 b 268 237 313 285 334 346 b 352 398 354 472 304 506 b 255 540 185 528 138 498 b 24 428 35 261 91 158 b 99 145 106 132 115 120 b 114 119 112 117 111 115 b 74 76 31 18 68 -36 b 105 -89 184 -87 235 -57 b 252 -46 267 -33 279 -18 b 332 -45 391 -62 449 -68 b 458 -69 472 -69 478 -60 b 483 -52 476 -44 468 -42 z m 185 487 b 207 504 236 512 264 503 b 298 493 315 460 318 426 b 324 361 291 300 250 253 b 224 223 194 196 165 169 b 113 264 91 412 185 487 z m 206 -52 b 173 -68 132 -69 104 -44 b 78 -21 74 14 88 45 b 97 66 112 85 128 103 b 164 58 209 21 259 -8 b 245 -26 227 -41 206 -52 z"},"_":{"x_min":0,"x_max":340,"ha":340,"o":"m 257 -34 b 195 -32 130 -30 70 -39 b 62 -40 50 -45 50 -54 b 50 -63 62 -68 70 -69 b 131 -74 195 -72 257 -72 b 268 -72 290 -68 290 -53 b 290 -38 267 -35 257 -34 z"},"v":{"x_min":0,"x_max":261,"ha":261,"o":"m 252 99 b 234 96 214 97 196 103 b 204 128 211 153 215 179 b 218 205 217 236 196 255 b 177 272 148 271 127 258 b 102 241 92 206 96 178 b 101 140 129 112 164 97 b 159 84 153 71 146 59 b 140 48 133 37 124 28 b 121 24 113 14 108 13 b 102 12 99 18 96 23 b 80 47 73 79 67 107 b 61 138 57 170 52 202 b 49 218 30 222 15 222 b 5 222 -23 217 -21 202 b -17 165 -11 128 0 92 b 10 60 25 25 52 3 b 78 -17 111 -17 137 2 b 162 20 176 48 186 76 b 188 80 189 84 191 88 b 214 82 238 81 259 85 b 275 88 265 101 252 99 z m 181 146 b 178 135 175 125 171 114 b 138 132 116 165 123 205 b 126 220 132 236 144 245 b 159 257 174 251 182 236 b 197 209 189 174 181 146 z"},"O":{"x_min":0,"x_max":687,"ha":687,"o":"m -21 -57 b -3 -116 35 -168 89 -199 b 144 -232 210 -246 274 -243 b 400 -237 509 -168 572 -60 b 636 48 649 180 619 300 b 588 421 498 526 375 557 b 262 585 139 549 70 454 b 27 396 14 322 30 255 b 10 221 -5 184 -15 147 b -34 79 -41 10 -21 -57 z m 501 168 b 496 170 489 169 485 165 b 396 99 275 61 170 113 b 128 133 96 165 76 204 b 107 274 157 340 232 354 b 276 363 328 344 344 299 b 361 252 320 189 267 195 b 241 198 224 225 231 251 b 236 269 191 271 190 254 b 186 194 258 169 306 184 b 355 199 394 253 381 305 b 368 360 305 384 253 386 b 189 388 124 361 78 317 b 68 307 58 296 50 285 b 47 313 48 341 56 369 b 82 468 173 542 274 551 b 387 561 491 497 548 403 b 609 304 616 185 587 74 b 563 -19 510 -110 429 -165 b 341 -224 210 -242 119 -179 b 24 -114 18 17 46 119 b 50 137 57 157 64 177 b 72 165 81 154 92 144 b 180 59 318 59 424 109 b 453 122 480 139 505 158 b 510 162 504 166 501 168 z"},"(":{"x_min":0,"x_max":352,"ha":352,"o":"m 274 -81 b 264 -101 245 -116 222 -115 b 202 -115 187 -100 176 -85 b 146 -45 135 7 128 55 b 120 109 120 164 122 219 b 124 270 127 322 136 373 b 141 401 148 429 159 456 b 168 480 182 524 217 515 b 225 513 242 522 228 526 b 168 544 122 487 99 440 b 71 381 61 314 55 250 b 49 180 47 109 58 40 b 67 -23 88 -90 149 -120 b 198 -144 276 -144 301 -85 b 306 -74 278 -72 274 -81 z"},"C":{"x_min":0,"x_max":707,"ha":707,"o":"m -9 -275 b 20 -316 62 -344 112 -354 b 222 -379 328 -318 417 -259 b 507 -199 590 -128 663 -47 b 682 -26 700 -5 717 17 b 725 27 701 31 695 24 b 635 -52 565 -122 489 -183 b 450 -214 410 -242 368 -268 b 325 -295 280 -319 231 -331 b 184 -342 131 -342 90 -315 b 56 -293 36 -255 25 -217 b -1 -127 14 -25 41 63 b 69 158 114 250 167 333 b 192 372 220 410 253 442 b 286 475 325 507 370 521 b 411 534 453 523 479 487 b 506 450 509 401 501 357 b 483 268 431 183 369 118 b 338 86 304 58 267 34 b 248 21 145 -43 134 -6 b 129 13 145 37 154 53 b 166 73 179 94 194 112 b 221 147 253 179 289 205 b 307 219 327 232 347 243 b 360 250 337 258 329 253 b 241 205 168 132 121 43 b 113 27 101 4 110 -14 b 119 -33 144 -33 162 -31 b 212 -26 261 4 302 32 b 384 88 452 162 501 249 b 548 331 592 460 501 530 b 404 606 277 536 203 464 b 125 389 71 291 27 193 b -20 90 -56 -25 -49 -139 b -46 -186 -36 -235 -9 -275 z"},"W":{"x_min":0,"x_max":1739,"ha":1739,"o":"m 544 269 b 572 216 642 214 694 217 b 756 220 817 234 874 259 b 901 271 928 285 953 302 b 962 308 963 318 953 324 b 943 330 924 331 914 324 b 869 294 818 271 765 259 b 739 253 712 249 686 248 b 664 247 636 245 617 257 b 568 289 595 359 618 396 b 645 439 679 478 717 512 b 791 579 881 628 974 662 b 1082 701 1199 722 1313 700 b 1411 681 1504 628 1562 546 b 1617 469 1642 374 1644 280 b 1645 182 1621 83 1574 -4 b 1549 -49 1518 -90 1479 -125 b 1442 -157 1391 -191 1339 -183 b 1294 -175 1260 -136 1238 -98 b 1212 -52 1198 2 1189 54 b 1170 165 1174 279 1155 390 b 1151 416 1145 443 1137 468 b 1133 483 1091 482 1092 465 b 1095 261 1069 47 960 -129 b 933 -172 903 -214 862 -243 b 828 -268 786 -285 746 -266 b 706 -248 676 -210 652 -174 b 623 -129 599 -80 577 -31 b 531 70 497 176 464 282 b 433 386 406 493 362 593 b 328 670 267 751 172 727 b 126 716 89 683 60 647 b 28 606 3 558 -12 508 b -36 428 -51 306 22 246 b 60 214 113 209 160 214 b 209 219 257 235 299 260 b 321 274 342 288 362 305 b 377 317 336 331 324 317 b 291 279 250 253 201 238 b 153 224 91 220 51 255 b 18 284 6 331 4 374 b 2 423 12 474 28 521 b 45 569 67 618 101 656 b 132 691 180 727 229 712 b 273 700 294 660 309 621 b 327 577 334 529 347 484 b 404 278 451 66 553 -123 b 596 -204 652 -294 751 -308 b 853 -323 933 -251 987 -173 b 1067 -57 1107 79 1125 218 b 1128 175 1131 133 1136 90 b 1149 -11 1179 -144 1280 -194 b 1392 -249 1510 -165 1577 -78 b 1643 9 1682 116 1692 225 b 1701 327 1685 434 1634 525 b 1579 623 1484 690 1377 721 b 1252 756 1120 745 997 708 b 886 675 780 622 691 548 b 649 513 611 473 580 429 b 548 384 516 324 544 269 z"},"A":{"x_min":0,"x_max":1183,"ha":1183,"o":"m -9 46 b 31 9 94 6 145 7 b 214 9 284 21 352 34 b 424 47 495 64 567 80 b 604 88 640 96 677 104 b 608 14 547 -85 526 -197 b 515 -258 519 -327 558 -379 b 593 -426 654 -436 707 -413 b 762 -389 809 -339 838 -287 b 870 -232 879 -165 871 -103 b 861 -18 827 59 779 124 b 837 135 895 144 953 152 b 971 154 989 156 1007 158 b 1009 150 1011 143 1013 135 b 1043 24 1077 -87 1122 -193 b 1146 -251 1175 -317 1224 -358 b 1234 -366 1272 -368 1266 -348 b 1259 -322 1246 -299 1234 -276 b 1222 -251 1211 -226 1201 -201 b 1179 -150 1161 -98 1143 -46 b 1106 63 1075 175 1051 288 b 1037 351 1026 415 1015 479 b 1012 494 994 499 980 499 b 971 499 947 495 946 481 b 928 418 890 362 850 311 b 813 265 774 221 736 176 b 623 295 455 365 290 355 b 171 348 60 288 -5 187 b -32 145 -52 85 -9 46 z m 818 -196 b 813 -251 791 -305 756 -347 b 719 -391 652 -435 599 -389 b 555 -351 545 -282 550 -227 b 561 -104 634 9 708 105 b 709 107 710 108 711 109 b 738 75 760 36 778 -5 b 805 -65 824 -129 818 -196 z m 938 403 b 943 412 948 421 952 431 b 964 344 982 258 1004 172 b 925 163 847 151 769 137 b 764 144 758 152 751 159 b 817 237 890 312 938 403 z m 61 225 b 102 262 150 287 204 303 b 318 335 449 304 550 248 b 607 217 656 176 696 128 b 694 126 693 124 691 121 b 564 95 438 62 309 40 b 247 30 183 19 119 20 b 70 22 -4 35 -8 96 b -12 145 26 195 61 225 z"},"f":{"x_min":0,"x_max":165,"ha":165,"o":"m 171 97 b 140 79 104 71 70 58 b 67 88 66 119 65 149 b 65 199 69 248 69 298 b 68 327 -3 327 -6 298 b -17 194 -16 83 9 -18 b 20 -65 50 -114 106 -106 b 147 -100 167 -57 157 -19 b 147 21 114 38 77 43 b 114 59 153 67 188 88 b 199 95 178 101 171 97 z m 114 9 b 128 -5 136 -27 133 -47 b 131 -60 124 -76 110 -80 b 102 -82 97 -73 94 -66 b 83 -45 81 -20 78 2 b 76 11 75 20 74 29 b 89 27 103 21 114 9 z"},"Q":{"x_min":0,"x_max":697,"ha":697,"o":"m 70 454 b 27 396 14 322 30 255 b 10 221 -5 184 -15 147 b -34 79 -41 10 -21 -57 b -3 -116 35 -168 89 -199 b 135 -226 188 -241 242 -243 b 242 -262 244 -280 246 -299 b 213 -301 180 -310 150 -327 b 110 -350 69 -391 65 -439 b 63 -461 70 -482 94 -484 b 119 -486 133 -469 144 -449 b 149 -439 122 -436 118 -445 b 115 -450 105 -473 95 -465 b 89 -460 91 -442 92 -436 b 95 -417 105 -399 116 -384 b 137 -357 166 -337 198 -326 b 215 -320 232 -316 249 -315 b 251 -325 252 -335 255 -345 b 265 -391 280 -439 314 -474 b 342 -503 384 -522 425 -517 b 467 -511 498 -479 490 -435 b 481 -392 442 -362 406 -340 b 366 -315 319 -300 273 -299 b 270 -280 269 -262 268 -243 b 270 -243 272 -243 274 -243 b 400 -237 509 -168 572 -60 b 636 48 649 180 619 300 b 588 421 498 526 375 557 b 262 585 139 549 70 454 z m 407 -365 b 436 -386 466 -414 464 -453 b 463 -496 418 -510 383 -497 b 312 -471 286 -384 275 -316 b 322 -319 368 -338 407 -365 z m 274 551 b 387 561 491 497 548 403 b 609 304 616 185 587 74 b 563 -19 510 -110 429 -165 b 383 -196 326 -216 268 -218 b 269 -158 279 -98 299 -40 b 303 -30 278 -28 275 -36 b 253 -94 242 -156 242 -218 b 198 -217 155 -204 119 -179 b 24 -114 18 17 46 119 b 50 137 57 157 64 177 b 72 165 81 154 92 144 b 180 59 318 59 424 109 b 453 122 480 139 505 158 b 510 162 504 166 501 168 b 496 170 489 169 485 165 b 396 99 275 61 170 113 b 128 133 96 165 76 204 b 107 274 157 340 232 354 b 276 363 328 344 344 299 b 361 252 320 189 267 195 b 241 198 224 225 231 251 b 236 269 191 271 190 254 b 186 194 258 169 306 184 b 355 199 394 253 381 305 b 368 360 305 384 253 386 b 189 388 124 361 78 317 b 68 307 58 296 50 285 b 47 313 48 341 56 369 b 82 468 173 542 274 551 z"},"w":{"x_min":0,"x_max":350,"ha":350,"o":"m 324 103 b 315 103 305 104 296 106 b 296 106 296 106 296 106 b 302 136 304 166 301 196 b 298 220 291 245 267 257 b 216 282 181 220 190 176 b 198 135 230 110 267 98 b 266 96 266 95 266 94 b 259 71 249 45 231 29 b 217 16 203 18 194 34 b 189 43 186 55 184 65 b 180 93 182 121 182 149 b 182 172 126 171 123 149 b 123 142 122 135 122 128 b 118 109 114 90 107 71 b 102 59 96 48 89 37 b 86 31 77 19 69 21 b 63 22 59 29 57 33 b 45 56 47 89 48 113 b 50 143 55 173 59 203 b 62 228 -4 229 -8 203 b -19 142 -32 17 53 3 b 84 -2 107 18 120 44 b 124 50 127 57 130 64 b 140 34 159 10 192 4 b 249 -6 278 44 292 91 b 303 89 314 89 324 89 b 339 89 339 103 324 103 z m 271 114 b 242 127 218 151 215 185 b 214 196 215 208 219 218 b 223 228 234 249 248 246 b 274 241 275 193 276 173 b 276 153 275 134 271 114 z"},"-":{"x_min":0,"x_max":296,"ha":296,"o":"m 217 187 b 167 184 116 184 66 178 b 45 176 44 154 66 152 b 116 148 167 151 217 154 b 227 155 245 157 246 170 b 246 183 226 187 217 187 z"},"E":{"x_min":0,"x_max":805,"ha":805,"o":"m -153 -282 b -140 -333 -98 -362 -48 -372 b 3 -382 59 -374 109 -363 b 164 -350 217 -331 268 -307 b 346 -272 423 -229 495 -180 b 498 -181 500 -181 503 -181 b 555 -189 609 -189 662 -180 b 688 -175 714 -167 739 -158 b 754 -152 736 -142 726 -145 b 658 -172 585 -177 513 -167 b 522 -161 530 -155 539 -149 b 579 -119 618 -86 652 -50 b 687 -13 722 28 744 73 b 764 113 770 165 737 199 b 704 234 644 236 600 228 b 548 220 497 198 452 172 b 411 148 372 118 341 82 b 311 46 280 -1 286 -50 b 291 -92 323 -122 360 -140 b 390 -156 424 -166 458 -173 b 403 -208 344 -239 285 -268 b 198 -309 102 -346 4 -345 b -37 -344 -72 -330 -87 -289 b -102 -245 -87 -198 -67 -158 b -25 -73 37 1 106 67 b 175 132 251 189 334 235 b 355 246 376 257 397 267 b 411 274 409 290 397 298 b 380 307 359 305 343 298 b 285 271 223 246 159 242 b 135 241 109 240 87 251 b 63 264 56 291 61 317 b 72 374 127 421 172 453 b 222 489 279 522 341 530 b 369 533 402 531 403 496 b 404 458 391 419 376 385 b 368 368 410 365 417 378 b 436 414 450 455 450 496 b 450 532 421 551 388 557 b 311 571 228 536 163 498 b 99 461 24 409 -4 337 b -17 303 -16 265 10 238 b 35 213 73 203 107 200 b 132 197 156 198 180 200 b 145 174 110 147 78 118 b -2 46 -76 -37 -125 -133 b -149 -178 -167 -231 -153 -282 z m 431 -149 b 393 -138 351 -122 327 -88 b 300 -48 315 1 338 39 b 386 115 469 169 553 199 b 598 215 661 229 703 200 b 745 171 737 114 717 75 b 675 -6 601 -73 529 -126 b 512 -138 495 -150 477 -161 b 462 -158 446 -154 431 -149 z"},"s":{"x_min":0,"x_max":170,"ha":170,"o":"m 152 110 b 133 106 113 99 95 89 b 77 109 57 129 43 153 b 32 172 20 203 36 223 b 57 247 81 210 85 191 b 88 183 113 184 111 193 b 105 230 74 253 36 253 b -7 253 -42 214 -35 171 b -28 124 12 90 44 59 b 46 57 48 54 51 52 b 48 50 46 47 44 44 b 33 28 25 5 35 -14 b 45 -30 65 -37 83 -38 b 102 -39 125 -36 138 -20 b 153 -2 149 19 137 38 b 129 51 119 64 108 76 b 124 86 142 93 161 98 b 175 101 161 112 152 110 z m 94 -23 b 80 -27 62 -18 58 -4 b 52 10 58 25 66 37 b 77 27 87 17 95 6 b 102 -3 110 -18 94 -23 z"},">":{"x_min":0,"x_max":390,"ha":390,"o":"m 331 196 b 315 207 296 212 278 219 b 256 226 235 234 213 241 b 193 249 172 256 151 263 b 130 270 108 279 85 282 b 79 282 49 276 63 265 b 78 253 98 247 115 240 b 134 232 153 225 172 217 b 191 210 210 203 229 195 b 235 193 242 191 249 188 b 224 181 199 172 175 162 b 135 145 94 126 59 101 b 48 93 46 81 59 73 b 73 65 94 65 108 73 b 142 93 175 114 212 129 b 249 145 287 156 325 168 b 341 172 345 186 331 196 z"},"l":{"x_min":0,"x_max":155,"ha":155,"o":"m 156 96 b 150 76 142 55 130 38 b 123 28 114 19 103 12 b 91 5 81 9 73 21 b 61 39 59 64 58 85 b 55 110 55 134 54 158 b 54 261 58 363 58 465 b 58 492 -9 492 -10 465 b -12 401 -14 336 -15 272 b -15 212 -20 150 -8 91 b -3 64 4 34 25 14 b 41 -2 65 -12 88 -9 b 141 -2 166 46 179 92 b 182 102 159 104 156 96 z"},"8":{"x_min":0,"x_max":358,"ha":358,"o":"m 50 326 b 51 275 80 232 110 192 b 115 186 120 180 125 174 b 82 110 65 6 129 -49 b 156 -72 196 -79 229 -65 b 267 -49 288 -7 282 33 b 277 65 261 94 243 121 b 264 167 283 213 295 262 b 306 307 314 358 303 404 b 294 443 267 477 227 486 b 184 495 139 480 105 452 b 69 423 49 372 50 326 z m 218 -52 b 167 -82 123 -20 114 23 b 105 69 115 117 138 158 b 160 131 182 104 201 76 b 215 56 228 34 234 11 b 239 -10 239 -40 218 -52 z m 140 423 b 150 442 163 460 184 468 b 209 476 235 470 253 451 b 294 410 288 341 278 290 b 268 238 249 189 227 142 b 223 148 219 153 215 159 b 185 197 152 236 133 281 b 115 326 118 380 140 423 z"},"\\":{"x_min":0,"x_max":441,"ha":441,"o":"m 391 -127 b 389 -102 372 -76 361 -54 b 348 -29 336 -4 324 22 b 301 72 279 122 258 173 b 235 227 212 281 190 335 b 167 391 146 447 120 501 b 109 524 41 521 51 490 b 69 433 93 379 116 324 b 138 270 160 216 183 162 b 205 111 228 60 252 10 b 265 -15 278 -40 292 -65 b 306 -89 322 -117 345 -134 b 353 -141 392 -147 391 -127 z"},"e":{"x_min":0,"x_max":158,"ha":158,"o":"m 159 95 b 149 67 131 31 103 16 b 66 -4 58 69 58 91 b 58 109 60 127 65 144 b 96 143 138 159 133 196 b 131 215 114 226 97 229 b 70 235 39 226 20 207 b -16 171 -24 113 -14 66 b -5 17 48 -22 98 -5 b 141 9 169 50 183 91 b 186 101 162 103 159 95 z m 86 192 b 89 196 94 207 97 206 b 106 205 107 188 105 182 b 100 168 84 159 70 159 b 74 170 80 181 86 192 z"},"b":{"x_min":0,"x_max":293,"ha":293,"o":"m 293 90 b 280 70 263 55 243 46 b 248 71 249 99 245 123 b 241 155 228 189 202 211 b 180 229 153 236 129 219 b 101 200 85 160 74 130 b 69 118 66 106 63 94 b 62 95 62 97 62 98 b 59 123 57 147 56 171 b 92 224 134 273 168 328 b 198 378 236 462 185 512 b 163 534 130 538 102 528 b 70 517 47 489 30 460 b -6 400 -14 327 -17 259 b -18 213 -16 168 -11 123 b -6 81 -1 29 25 -5 b 32 -14 65 -16 68 -2 b 70 3 71 8 71 13 b 71 14 71 14 71 15 b 78 67 90 120 115 167 b 124 183 160 240 176 200 b 184 178 185 149 185 125 b 185 98 181 64 169 35 b 145 36 121 37 99 27 b 76 16 53 -14 75 -36 b 99 -61 142 -60 172 -48 b 206 -35 227 -6 238 27 b 270 36 298 55 318 86 b 323 95 298 98 293 90 z m 71 391 b 78 419 87 446 101 472 b 107 482 114 492 122 501 b 134 513 145 515 159 504 b 186 482 185 441 177 411 b 169 381 155 353 139 327 b 114 287 83 250 55 212 b 54 271 56 333 71 391 z m 138 -10 b 126 -19 102 -27 105 -1 b 107 21 138 21 163 20 b 156 9 148 -2 138 -10 z"},"%":{"x_min":0,"x_max":509,"ha":509,"o":"m 437 460 b 424 463 403 463 393 452 b 359 413 329 370 299 329 b 269 287 239 245 210 202 b 182 159 153 116 126 73 b 99 30 71 -13 51 -59 b 42 -78 87 -80 96 -70 b 130 -30 158 14 188 57 b 217 100 246 143 275 186 b 304 229 334 271 364 313 b 394 355 427 395 457 436 b 465 448 444 458 437 460 z m 129 243 b 180 234 215 267 226 314 b 236 359 234 417 198 451 b 168 481 117 484 87 452 b 60 422 54 374 81 346 b 73 303 76 253 129 243 z m 117 452 b 161 486 199 422 204 385 b 210 347 199 292 163 271 b 145 261 138 276 136 292 b 132 316 139 341 145 365 b 149 383 102 388 89 374 b 82 401 96 437 117 452 z m 312 166 b 285 136 279 88 305 60 b 298 16 301 -34 354 -44 b 405 -53 440 -19 451 28 b 461 73 459 130 423 165 b 393 194 342 198 312 166 z m 388 -16 b 370 -26 363 -11 361 5 b 357 29 364 55 369 78 b 374 96 327 101 314 88 b 307 115 321 150 341 166 b 386 200 424 135 429 98 b 435 60 424 5 388 -16 z"},"m":{"x_min":0,"x_max":395,"ha":395,"o":"m 395 86 b 388 63 378 41 366 20 b 363 14 360 9 356 5 b 355 2 352 0 350 -2 b 349 0 348 2 347 4 b 341 11 341 25 340 34 b 334 82 337 138 312 182 b 304 197 291 210 272 208 b 253 207 242 191 234 176 b 221 150 211 122 203 94 b 200 112 196 129 191 145 b 181 174 161 211 125 211 b 93 212 77 177 67 151 b 65 145 63 139 61 133 b 62 159 62 185 59 211 b 55 238 -6 238 -11 211 b -17 175 -13 136 -11 100 b -11 82 -10 64 -8 46 b -5 27 -3 8 12 -4 b 21 -11 36 -11 44 -4 b 56 7 58 21 59 36 b 66 61 73 87 80 112 b 85 127 90 142 96 157 b 100 167 107 184 117 191 b 135 203 135 167 135 158 b 136 144 136 128 135 114 b 135 82 130 50 133 19 b 135 -10 203 -10 206 19 b 206 21 206 23 206 25 b 206 25 206 25 206 25 b 214 49 223 74 231 99 b 239 123 247 149 259 172 b 261 174 264 179 267 182 b 267 172 267 162 267 152 b 268 126 265 99 266 72 b 266 48 267 22 284 2 b 299 -15 328 -22 350 -19 b 370 -16 381 -3 390 13 b 402 35 412 58 419 82 b 422 93 398 95 395 86 z"},"#":{"x_min":0,"x_max":440,"ha":440,"o":"m 389 466 b 397 494 336 497 327 476 b 307 430 293 381 278 333 b 271 311 264 288 258 266 b 247 265 237 265 227 265 b 248 334 270 403 291 473 b 299 501 236 506 226 483 b 197 411 175 336 154 260 b 134 258 113 256 93 254 b 77 252 87 239 99 241 b 116 243 133 244 151 246 b 146 230 142 215 138 199 b 133 182 129 165 124 147 b 103 147 82 146 61 146 b 46 145 46 132 61 132 b 81 132 101 133 121 133 b 114 108 108 83 102 57 b 91 10 76 -39 73 -88 b 72 -108 117 -107 123 -92 b 144 -48 154 2 167 49 b 175 78 182 106 190 134 b 200 135 211 135 222 135 b 214 105 207 74 200 43 b 190 -4 175 -55 178 -104 b 180 -121 215 -120 221 -107 b 244 -62 252 -10 265 38 b 273 71 282 104 291 136 b 308 137 325 137 343 138 b 358 138 358 152 343 152 b 327 152 311 151 295 151 b 298 161 300 171 303 181 b 309 205 316 228 323 252 b 339 252 354 252 369 251 b 385 251 385 265 369 265 b 355 266 341 266 327 266 b 333 285 339 304 344 323 b 359 370 377 418 389 466 z m 236 188 b 232 175 229 163 226 150 b 215 149 204 149 194 149 b 197 163 201 177 205 192 b 211 211 217 231 222 250 b 233 251 243 251 254 251 b 248 230 242 209 236 188 z"},",":{"x_min":0,"x_max":199,"ha":199,"o":"m 87 69 b 78 50 69 31 62 11 b 56 -5 45 -29 53 -44 b 59 -55 78 -55 87 -50 b 105 -38 112 -17 121 2 b 130 21 139 40 148 60 b 159 84 97 90 87 69 z"},"n":{"x_min":0,"x_max":250,"ha":250,"o":"m 249 90 b 235 68 229 42 213 22 b 209 17 204 12 198 9 b 196 9 194 8 192 7 b 189 6 188 7 189 10 b 187 13 188 20 188 24 b 188 32 187 39 187 46 b 186 74 186 101 182 129 b 180 152 176 179 160 197 b 148 209 130 222 112 214 b 94 206 85 181 78 164 b 70 145 63 126 58 106 b 57 134 58 162 60 190 b 61 217 -8 217 -11 190 b -15 154 -15 119 -12 83 b -10 53 -9 5 22 -10 b 28 -13 38 -15 44 -10 b 57 -1 61 14 62 30 b 68 49 72 69 78 88 b 85 115 93 141 105 166 b 106 170 116 193 123 199 b 120 193 121 175 121 171 b 119 143 117 115 116 88 b 116 63 112 30 128 10 b 143 -8 169 -11 191 -9 b 243 -5 251 50 274 86 b 280 94 254 98 249 90 z"},"h":{"x_min":0,"x_max":304,"ha":304,"o":"m 305 94 b 294 67 284 40 267 17 b 263 10 246 -15 235 -11 b 226 -8 226 13 226 20 b 225 47 222 73 220 99 b 217 128 213 160 198 185 b 187 202 166 220 144 215 b 123 211 110 189 100 171 b 85 143 74 113 65 82 b 64 87 63 93 62 98 b 59 123 57 147 56 171 b 92 224 134 273 168 328 b 198 378 236 462 185 512 b 163 534 130 538 102 528 b 70 517 47 489 30 460 b -6 400 -14 327 -17 259 b -18 213 -16 168 -11 123 b -6 81 -1 29 25 -5 b 32 -14 65 -16 68 -2 b 69 2 70 6 71 10 b 85 65 99 122 128 172 b 132 179 136 185 141 191 b 144 194 146 196 149 198 b 149 198 150 197 150 196 b 150 184 152 172 151 161 b 151 130 148 99 150 68 b 151 40 155 15 177 -5 b 193 -21 218 -32 241 -28 b 265 -25 279 -6 291 13 b 306 37 317 64 328 90 b 331 99 308 102 305 94 z m 71 391 b 78 419 87 446 101 472 b 107 482 114 492 122 501 b 134 513 145 515 159 504 b 186 482 185 441 177 411 b 169 381 155 353 139 327 b 114 287 83 250 55 212 b 54 271 56 333 71 391 z"},"z":{"x_min":0,"x_max":285,"ha":285,"o":"m 291 84 b 271 75 250 67 230 57 b 211 91 174 110 134 116 b 140 122 146 128 152 135 b 164 150 179 174 167 194 b 158 209 136 211 120 212 b 91 215 62 214 34 212 b 30 211 24 208 25 204 b 27 198 36 198 40 199 b 61 201 82 201 104 200 b 121 199 160 197 138 171 b 128 158 111 147 97 138 b 81 127 65 118 49 108 b 40 103 37 94 44 87 b 52 78 69 77 80 78 b 102 81 124 83 144 72 b 160 62 172 47 177 30 b 152 16 127 1 104 -15 b 76 -34 48 -55 25 -79 b 8 -97 -18 -128 -4 -154 b 9 -178 47 -180 70 -179 b 105 -177 138 -164 166 -144 b 216 -109 252 -45 244 18 b 242 26 240 34 238 42 b 259 52 282 62 304 71 b 320 77 301 88 291 84 z m 135 -113 b 119 -131 100 -144 76 -151 b 55 -158 14 -164 21 -129 b 27 -102 53 -81 72 -64 b 93 -46 115 -30 139 -14 b 152 -5 166 3 180 11 b 184 -32 163 -81 135 -113 z"},"B":{"x_min":0,"x_max":1196,"ha":1196,"o":"m 23 83 b 65 29 122 -7 180 -41 b 182 -113 190 -186 209 -255 b 233 -339 288 -454 394 -436 b 439 -429 471 -396 480 -353 b 488 -310 474 -263 454 -226 b 411 -146 335 -96 259 -52 b 257 -51 255 -50 253 -49 b 253 -47 253 -45 253 -42 b 246 69 248 181 248 292 b 248 320 248 348 248 375 b 248 394 203 394 201 375 b 188 265 178 155 178 44 b 178 28 179 11 179 -5 b 125 28 74 67 41 123 b 19 161 7 203 12 246 b 18 293 43 336 75 371 b 136 437 222 474 309 495 b 358 507 409 513 459 505 b 494 499 557 481 551 434 b 548 411 527 393 512 377 b 495 360 478 344 460 329 b 425 299 386 274 345 253 b 333 246 321 241 308 236 b 297 232 286 227 275 222 b 263 216 262 203 272 196 b 283 187 304 185 317 191 b 364 208 411 219 461 223 b 512 227 563 225 614 223 b 721 219 829 209 933 188 b 958 183 982 176 1006 167 b 1023 161 1042 153 1054 138 b 1085 98 1025 61 996 44 b 953 18 905 0 858 -18 b 809 -36 759 -53 708 -67 b 652 -83 596 -95 538 -105 b 495 -113 450 -128 418 -88 b 403 -71 342 -81 362 -107 b 392 -146 449 -157 496 -151 b 555 -143 614 -132 672 -118 b 788 -90 904 -53 1011 -1 b 1038 12 1063 26 1086 44 b 1106 59 1126 79 1132 104 b 1142 156 1085 187 1045 202 b 987 224 925 233 864 241 b 801 250 738 256 674 261 b 601 266 522 271 445 264 b 480 289 512 317 541 349 b 567 378 607 416 591 459 b 576 497 530 515 494 524 b 397 547 292 525 201 489 b 119 457 40 405 -4 326 b -26 287 -37 241 -30 196 b -23 154 -3 116 23 83 z m 429 -279 b 437 -319 430 -379 386 -396 b 374 -401 362 -389 354 -381 b 338 -366 327 -347 317 -328 b 277 -253 263 -169 256 -85 b 329 -129 411 -190 429 -279 z"},"K":{"x_min":0,"x_max":603,"ha":603,"o":"m 180 521 b 161 370 153 216 149 64 b 138 57 126 51 114 44 b 113 44 112 44 112 43 b 84 45 55 42 27 34 b -42 14 -100 -38 -135 -100 b -143 -114 -110 -114 -104 -110 b -67 -88 -31 -63 6 -41 b 42 -19 78 2 115 22 b 126 21 137 19 148 16 b 147 -54 146 -124 152 -194 b 156 -232 161 -269 170 -307 b 178 -340 189 -375 211 -403 b 231 -429 273 -440 303 -423 b 316 -417 323 -406 329 -393 b 345 -358 344 -313 343 -275 b 340 -176 312 -66 230 -2 b 228 -1 226 1 224 2 b 224 17 225 32 225 47 b 225 52 225 58 225 64 b 300 51 356 -9 402 -65 b 452 -127 495 -193 549 -251 b 599 -304 660 -350 732 -369 b 801 -387 881 -382 940 -338 b 970 -316 995 -280 991 -241 b 988 -207 967 -177 935 -165 b 929 -163 920 -163 915 -167 b 912 -171 911 -176 917 -178 b 945 -191 957 -224 950 -253 b 944 -285 919 -312 891 -328 b 836 -362 765 -355 708 -328 b 579 -265 510 -128 413 -29 b 362 24 300 70 226 77 b 226 79 226 81 226 83 b 269 107 311 131 353 156 b 423 198 491 242 554 293 b 615 342 678 398 721 464 b 742 496 755 534 744 572 b 733 605 705 630 670 633 b 664 634 651 634 648 626 b 646 619 654 615 660 614 b 692 611 710 579 713 550 b 717 514 698 480 678 452 b 633 392 576 339 517 292 b 427 220 327 162 226 106 b 231 244 241 383 243 521 b 244 546 183 546 180 521 z m -10 -25 b -28 -36 -45 -46 -62 -57 b -37 -28 -6 -4 31 10 b 44 15 57 19 71 21 b 44 6 17 -10 -10 -25 z m 284 -395 b 285 -396 285 -396 284 -395 z m 309 -258 b 311 -295 308 -336 292 -370 b 289 -375 286 -381 283 -385 b 282 -386 281 -387 280 -388 b 274 -378 268 -368 264 -357 b 238 -296 231 -227 227 -162 b 224 -118 224 -73 224 -28 b 286 -86 307 -175 309 -258 z m 149 40 b 149 39 149 38 149 37 b 147 38 146 38 144 38 b 146 39 147 40 149 41 b 149 41 149 41 149 40 z"},"R":{"x_min":0,"x_max":1252,"ha":1252,"o":"m 172 147 b 170 241 169 335 167 429 b 166 458 93 458 92 429 b 91 348 92 266 94 185 b 84 189 74 192 64 195 b 36 203 -7 214 -27 185 b -65 128 2 69 49 46 b 66 38 84 31 102 25 b 107 -39 113 -104 123 -168 b 132 -231 142 -299 174 -355 b 179 -365 193 -367 202 -366 b 209 -365 227 -362 225 -352 b 220 -326 215 -300 211 -274 b 211 -180 232 -85 265 5 b 265 5 266 5 267 5 b 296 4 326 5 355 7 b 389 -15 422 -36 456 -57 b 525 -100 594 -142 665 -180 b 732 -216 802 -247 877 -260 b 947 -273 1031 -274 1098 -246 b 1125 -234 1152 -214 1162 -185 b 1173 -156 1168 -123 1149 -99 b 1129 -74 1099 -62 1068 -60 b 1060 -60 1045 -64 1045 -74 b 1045 -84 1060 -86 1068 -87 b 1103 -88 1127 -125 1126 -158 b 1125 -195 1098 -220 1065 -231 b 990 -258 902 -248 828 -226 b 748 -202 674 -162 601 -122 b 528 -81 458 -36 388 9 b 436 13 483 19 530 25 b 607 37 685 50 761 69 b 903 103 1049 156 1160 255 b 1211 301 1249 363 1232 434 b 1217 499 1156 542 1098 566 b 964 622 807 590 680 530 b 549 467 439 365 358 244 b 325 195 296 142 271 86 b 238 107 206 128 172 147 z m 246 77 b 252 74 257 70 262 67 b 260 60 257 53 254 47 b 228 47 202 49 176 53 b 175 77 174 100 173 124 b 198 109 222 92 246 77 z m 30 125 b 21 135 13 147 9 159 b 7 165 5 173 9 179 b 15 188 29 184 37 182 b 57 178 77 172 95 164 b 96 134 98 104 99 75 b 73 86 48 103 30 125 z m 195 -167 b 195 -166 194 -165 194 -164 b 187 -106 183 -48 179 10 b 199 8 219 6 239 6 b 219 -51 204 -109 195 -167 z m 281 47 b 282 49 282 51 283 53 b 287 51 290 49 293 47 b 289 47 285 47 281 47 z m 324 141 b 390 269 483 383 603 464 b 719 543 865 597 1007 575 b 1075 564 1151 533 1189 472 b 1209 442 1214 408 1202 374 b 1190 342 1168 314 1144 291 b 1093 242 1028 206 964 177 b 899 147 830 126 761 109 b 690 92 618 80 546 69 b 474 59 402 50 330 47 b 317 56 304 64 292 72 b 302 96 313 119 324 141 z"},"T":{"x_min":0,"x_max":757,"ha":757,"o":"m 208 164 b 196 152 185 140 174 129 b 173 128 173 128 172 128 b 86 98 -5 50 -63 -22 b -76 -38 -92 -58 -97 -79 b -102 -97 -88 -108 -71 -108 b -51 -109 -34 -96 -19 -85 b 0 -71 19 -55 37 -39 b 88 6 135 56 182 106 b 230 124 280 135 331 141 b 402 148 481 145 546 113 b 546 112 546 111 546 110 b 551 48 558 -15 567 -77 b 576 -139 587 -202 610 -260 b 616 -275 659 -275 658 -257 b 658 -253 658 -250 658 -247 b 687 -156 706 -51 658 38 b 648 56 636 72 622 85 b 622 95 621 104 620 113 b 612 236 611 359 606 482 b 647 510 688 536 731 560 b 818 609 909 649 1005 677 b 1053 690 1101 701 1150 707 b 1193 712 1254 718 1276 671 b 1283 654 1283 634 1271 619 b 1257 604 1297 597 1307 610 b 1327 638 1314 677 1291 698 b 1262 727 1217 729 1178 726 b 1086 718 993 694 906 661 b 797 621 695 565 599 500 b 581 515 534 511 534 488 b 534 476 534 465 534 454 b 496 426 459 396 423 366 b 348 302 277 234 208 164 z m -2 -45 b -20 -60 -40 -79 -61 -89 b -77 -97 -63 -72 -59 -66 b -53 -56 -45 -46 -37 -36 b -7 -2 31 26 70 50 b 90 63 111 75 132 85 b 89 40 46 -5 -2 -45 z m 654 -167 b 653 -172 652 -177 651 -182 b 647 -145 641 -108 636 -71 b 632 -32 628 7 625 46 b 665 -15 667 -96 654 -167 z m 545 136 b 514 148 481 156 448 160 b 371 169 291 162 216 142 b 228 154 241 167 253 179 b 342 268 434 353 534 429 b 535 331 538 233 545 136 z"},"P":{"x_min":0,"x_max":1075,"ha":1075,"o":"m 578 474 b 502 397 454 293 426 190 b 424 184 422 178 421 172 b 410 175 398 179 387 183 b 388 263 394 344 402 424 b 405 451 337 451 332 424 b 320 353 315 280 314 207 b 288 216 262 225 236 233 b 180 251 123 268 63 261 b 19 257 -31 232 -37 183 b -42 131 8 89 48 65 b 99 35 160 21 218 12 b 253 7 288 4 323 3 b 327 -35 333 -72 339 -110 b 349 -168 361 -228 387 -282 b 392 -293 427 -295 427 -279 b 426 -258 424 -236 421 -215 b 418 -142 420 -69 428 4 b 483 7 538 14 592 22 b 698 38 804 67 896 123 b 980 175 1076 264 1067 373 b 1058 478 950 549 854 566 b 751 585 651 547 578 474 z m 417 156 b 408 119 402 83 397 45 b 395 45 393 45 391 45 b 390 54 390 62 389 71 b 388 102 387 134 387 165 b 397 162 407 159 417 156 z m 188 61 b 141 70 90 86 52 117 b 17 145 -6 197 40 228 b 84 257 143 242 190 229 b 232 217 273 203 314 189 b 314 149 315 108 318 68 b 318 60 319 53 320 46 b 276 47 232 52 188 61 z m 995 447 b 1053 354 987 255 913 194 b 842 135 753 99 663 78 b 588 61 510 51 433 47 b 434 56 436 65 437 74 b 441 98 446 122 451 146 b 470 141 488 137 506 133 b 534 127 561 123 589 120 b 594 119 603 120 605 125 b 607 131 601 134 596 134 b 548 139 501 149 455 162 b 474 234 501 304 538 368 b 585 447 656 524 750 544 b 840 563 946 527 995 447 z"},"|":{"x_min":0,"x_max":191,"ha":191,"o":"m 138 -50 b 136 -26 136 -2 135 22 b 133 71 132 120 131 168 b 128 266 133 365 127 463 b 125 491 57 491 54 463 b 46 365 52 266 54 168 b 56 120 58 71 61 22 b 62 -1 64 -24 67 -47 b 71 -70 74 -98 89 -118 b 96 -129 133 -137 138 -118 b 144 -96 140 -72 138 -50 z"},"t":{"x_min":0,"x_max":155,"ha":155,"o":"m 157 96 b 150 76 143 55 130 38 b 123 28 115 19 104 12 b 91 5 81 9 73 21 b 61 39 60 64 58 85 b 56 110 55 134 55 158 b 55 224 56 289 58 354 b 74 355 90 355 106 355 b 122 355 122 370 106 370 b 90 369 74 369 58 369 b 58 401 59 433 59 465 b 59 492 -8 492 -9 465 b -10 433 -11 400 -12 367 b -28 366 -43 366 -58 365 b -72 365 -73 351 -58 352 b -43 352 -28 352 -13 353 b -13 326 -14 299 -14 272 b -15 212 -19 150 -8 91 b -2 64 5 34 26 14 b 42 -2 66 -12 89 -9 b 142 -2 166 46 180 92 b 182 102 159 104 157 96 z"},"M":{"x_min":0,"x_max":984,"ha":984,"o":"m 1230 -293 b 1199 -343 1139 -373 1080 -363 b 1013 -351 971 -284 951 -226 b 923 -147 919 -59 915 23 b 911 110 912 196 908 282 b 906 325 904 368 899 411 b 895 448 890 490 874 524 b 862 550 831 549 813 528 b 796 508 786 478 777 454 b 754 389 739 321 722 254 b 713 219 704 184 694 150 b 685 118 674 85 654 58 b 644 45 628 27 609 28 b 597 30 590 52 587 62 b 570 102 561 145 556 188 b 544 277 543 367 514 453 b 510 466 473 466 468 453 b 467 452 466 451 466 449 b 446 342 416 235 381 132 b 364 82 345 33 320 -13 b 297 -58 268 -104 225 -131 b 179 -160 125 -159 84 -123 b 48 -91 27 -46 15 0 b -10 96 7 204 75 279 b 109 315 165 357 217 341 b 239 335 258 318 268 298 b 279 277 279 236 248 233 b 236 232 221 220 235 210 b 245 202 269 200 278 211 b 307 246 315 293 284 330 b 249 370 187 372 139 356 b 34 319 -30 206 -33 98 b -36 -9 14 -144 133 -166 b 256 -188 329 -61 370 34 b 399 99 420 168 439 237 b 451 279 462 322 472 365 b 474 309 475 253 480 197 b 484 157 491 117 503 79 b 516 40 535 4 580 -3 b 658 -16 695 65 713 127 b 734 200 750 274 770 347 b 778 381 788 415 800 448 b 805 462 810 476 817 489 b 820 496 823 502 826 509 b 830 516 839 535 848 526 b 854 521 856 505 857 499 b 858 490 859 480 859 471 b 859 449 858 427 857 405 b 857 359 854 312 852 266 b 847 176 844 85 849 -5 b 853 -89 860 -182 897 -259 b 933 -334 1001 -389 1086 -390 b 1153 -391 1224 -357 1257 -297 b 1263 -287 1235 -284 1230 -293 z"},"g":{"x_min":0,"x_max":253,"ha":253,"o":"m 256 96 b 241 81 224 69 206 58 b 205 107 203 157 201 206 b 200 235 129 235 127 206 b 127 200 127 193 127 187 b 107 197 83 202 59 197 b 4 186 -28 130 -18 75 b -14 49 -1 24 25 13 b 45 5 69 7 86 19 b 107 35 118 62 127 85 b 128 87 128 90 129 92 b 131 65 133 38 134 10 b 91 -22 45 -61 26 -113 b 16 -141 11 -178 29 -204 b 46 -228 79 -235 106 -229 b 184 -211 200 -130 204 -62 b 206 -29 207 4 206 37 b 231 53 257 69 277 89 b 286 97 263 102 256 96 z m 93 68 b 88 57 71 19 54 25 b 41 30 41 62 41 72 b 41 105 49 143 76 163 b 92 176 109 165 124 150 b 116 121 107 94 93 68 z m 137 -101 b 136 -131 134 -164 115 -189 b 96 -213 60 -223 47 -187 b 36 -156 46 -120 62 -93 b 80 -62 107 -36 135 -13 b 136 -42 137 -72 137 -101 z"},"j":{"x_min":0,"x_max":116,"ha":116,"o":"m 119 96 b 104 81 87 69 69 58 b 68 107 66 157 64 206 b 63 235 -8 235 -10 206 b -12 141 -6 75 -3 10 b -46 -22 -92 -61 -111 -113 b -121 -141 -126 -178 -108 -204 b -91 -228 -58 -235 -31 -229 b 47 -211 63 -130 67 -62 b 69 -29 70 4 69 37 b 94 53 120 69 140 89 b 149 97 126 102 119 96 z m 0 -101 b -1 -131 -3 -164 -22 -189 b -41 -213 -77 -223 -90 -187 b -101 -156 -91 -120 -75 -93 b -57 -62 -30 -36 -2 -13 b -1 -42 0 -72 0 -101 z m 8 277 b 8 274 11 272 14 271 b 15 270 17 269 19 269 b 29 266 41 267 43 275 b 49 295 59 312 67 331 b 71 341 74 353 61 357 b 49 361 39 355 32 346 b 29 342 26 337 23 332 b 19 340 13 346 3 348 b -2 349 -14 348 -18 343 b -25 334 -18 318 -14 308 b -10 296 -1 286 8 277 z"},"i":{"x_min":0,"x_max":123,"ha":123,"o":"m 123 97 b 113 75 104 51 88 32 b 85 29 81 25 77 22 b 72 17 69 14 64 17 b 58 21 57 42 57 48 b 52 101 59 154 61 207 b 62 235 -9 236 -12 207 b -16 170 -18 133 -13 96 b -8 65 0 26 28 7 b 88 -32 128 51 147 94 b 151 103 127 106 123 97 z m 7 277 b 8 274 10 272 14 271 b 15 270 17 269 19 269 b 28 266 40 267 43 275 b 49 295 59 312 66 331 b 70 341 74 353 61 357 b 49 361 39 355 32 346 b 28 342 25 337 23 332 b 19 340 12 346 3 348 b -3 349 -14 348 -18 343 b -25 334 -18 318 -14 308 b -10 296 -2 286 7 277 z"},"y":{"x_min":0,"x_max":265,"ha":265,"o":"m 269 96 b 254 81 237 69 219 58 b 218 107 215 157 213 206 b 212 233 151 235 141 212 b 141 211 140 211 140 210 b 129 178 121 146 112 114 b 108 100 104 86 98 72 b 93 61 83 38 70 34 b 65 32 65 33 62 39 b 59 46 58 52 57 59 b 54 75 54 91 54 107 b 54 143 59 179 63 215 b 66 240 0 242 -6 220 b -18 176 -19 128 -9 84 b -1 48 17 7 62 12 b 96 16 117 52 127 80 b 132 94 136 109 140 123 b 142 85 145 48 147 10 b 103 -22 57 -61 38 -113 b 28 -141 24 -178 42 -204 b 58 -228 91 -235 119 -229 b 196 -211 213 -130 217 -62 b 219 -29 219 4 219 37 b 244 53 269 69 290 89 b 298 97 275 102 269 96 z m 149 -101 b 148 -131 147 -164 127 -189 b 108 -213 72 -223 60 -187 b 49 -156 59 -120 74 -93 b 93 -62 119 -36 148 -13 b 149 -42 150 -72 149 -101 z"},"@":{"x_min":0,"x_max":558,"ha":558,"o":"m 436 352 b 333 424 188 370 117 279 b 46 191 24 54 86 -46 b 120 -100 180 -127 243 -126 b 307 -124 368 -94 416 -52 b 430 -40 394 -32 385 -39 b 347 -66 307 -92 260 -99 b 217 -105 174 -90 147 -55 b 90 20 100 135 142 213 b 180 282 261 359 346 345 b 438 330 470 219 453 139 b 448 115 438 91 425 70 b 417 57 393 21 374 36 b 355 50 357 87 357 108 b 356 138 361 168 368 198 b 370 207 347 206 343 201 b 320 177 303 147 285 119 b 276 105 265 90 252 78 b 250 77 240 72 238 69 b 238 69 238 69 238 69 b 236 77 234 82 234 90 b 235 126 250 162 268 192 b 276 205 284 222 296 230 b 309 239 325 228 331 216 b 334 210 355 209 353 218 b 345 266 280 260 248 242 b 198 216 173 153 165 99 b 161 70 173 44 204 37 b 233 30 257 41 277 63 b 299 87 314 117 331 146 b 329 130 327 114 326 99 b 323 75 320 47 336 27 b 352 6 382 3 406 10 b 433 17 451 37 467 59 b 526 144 527 288 436 352 z"},".":{"x_min":0,"x_max":156,"ha":156,"o":"m 81 29 b 72 29 58 26 56 15 b 54 -1 52 -16 50 -31 b 49 -42 68 -45 75 -45 b 85 -45 99 -42 100 -31 b 102 -16 104 -1 106 15 b 107 25 88 29 81 29 z"},"p":{"x_min":0,"x_max":264,"ha":264,"o":"m 271 83 b 257 78 242 78 228 81 b 230 112 226 144 214 173 b 203 200 181 235 147 233 b 112 231 95 193 85 164 b 72 127 68 88 64 49 b 63 107 64 165 63 223 b 63 251 -2 250 -6 223 b -16 138 -12 50 -7 -36 b -4 -78 0 -120 6 -162 b 9 -184 13 -206 17 -228 b 22 -249 26 -272 37 -291 b 44 -301 75 -306 79 -291 b 85 -271 82 -251 81 -231 b 81 -226 80 -220 80 -215 b 82 -161 82 -107 83 -54 b 85 11 87 79 104 142 b 107 155 112 168 118 180 b 123 192 134 217 149 217 b 173 217 173 157 174 141 b 174 125 174 108 172 92 b 164 93 156 94 149 93 b 116 92 95 72 90 39 b 83 -1 118 -22 155 -18 b 196 -14 218 16 225 55 b 225 59 226 63 227 66 b 246 64 265 64 284 70 b 300 75 281 86 271 83 z m 141 15 b 141 16 141 16 141 15 b 141 15 141 15 141 15 z m 162 49 b 158 36 152 26 141 17 b 141 17 141 16 140 16 b 137 19 128 32 128 34 b 121 48 123 66 138 75 b 147 80 158 80 169 78 b 168 68 165 58 162 49 z"},"X":{"x_min":0,"x_max":689,"ha":689,"o":"m 129 399 b 146 398 155 418 133 419 b 99 422 61 425 33 447 b 4 469 -6 509 -3 543 b 3 608 62 716 139 663 b 170 641 187 604 200 570 b 214 535 223 498 232 462 b 253 379 275 295 300 212 b 315 164 331 116 350 69 b 323 23 296 -22 267 -66 b 236 -113 202 -160 164 -203 b 146 -223 126 -243 103 -257 b 81 -271 44 -290 21 -271 b 14 -265 -11 -270 -2 -278 b 30 -304 74 -293 107 -276 b 149 -254 181 -219 210 -183 b 267 -114 316 -38 361 40 b 400 -50 447 -136 511 -212 b 605 -324 735 -414 883 -431 b 971 -441 1072 -428 1139 -366 b 1167 -341 1186 -308 1186 -270 b 1187 -233 1170 -199 1140 -178 b 1132 -172 1101 -179 1113 -190 b 1170 -241 1133 -327 1078 -363 b 1012 -405 927 -406 854 -384 b 715 -343 603 -242 523 -124 b 473 -51 435 29 403 112 b 492 267 579 424 707 551 b 745 588 785 621 830 650 b 865 673 934 717 962 661 b 969 648 1008 652 1001 667 b 982 705 934 716 895 709 b 850 701 809 672 772 645 b 697 589 633 520 577 446 b 507 350 450 246 392 143 b 368 207 348 272 327 336 b 303 415 282 498 245 572 b 228 605 205 634 176 659 b 150 681 118 698 82 692 b 7 681 -34 587 -38 519 b -42 427 54 401 129 399 z"},"*":{"x_min":0,"x_max":297,"ha":297,"o":"m 235 390 b 212 390 189 389 166 388 b 183 405 201 420 219 435 b 228 442 205 447 199 442 b 186 431 173 420 161 409 b 161 424 162 439 164 454 b 164 464 139 464 138 454 b 137 438 136 422 136 406 b 122 420 109 434 96 449 b 91 456 69 452 76 443 b 93 423 110 405 128 387 b 106 386 84 385 61 383 b 46 382 46 368 61 369 b 82 370 104 371 125 372 b 108 353 92 334 77 313 b 72 305 94 302 99 309 b 110 325 122 340 135 355 b 136 334 137 313 140 292 b 141 283 164 283 164 292 b 162 314 161 335 161 356 b 173 345 187 334 200 323 b 207 318 229 323 220 329 b 202 344 185 359 168 374 b 191 375 213 376 235 376 b 250 376 251 391 235 390 z"},"Y":{"x_min":0,"x_max":1117,"ha":1117,"o":"m 1207 -319 b 1193 -308 1176 -301 1158 -299 b 1150 -298 1133 -298 1132 -309 b 1130 -319 1145 -322 1152 -322 b 1194 -323 1223 -374 1211 -411 b 1195 -458 1141 -475 1097 -478 b 992 -487 892 -439 806 -384 b 868 -334 921 -270 960 -200 b 1009 -110 1038 -9 1048 93 b 1058 204 1049 324 1012 430 b 1003 457 991 483 979 510 b 979 511 978 512 977 513 b 970 527 932 526 934 510 b 947 410 942 307 917 208 b 894 122 857 32 794 -33 b 765 -62 729 -88 688 -96 b 645 -103 616 -73 596 -39 b 549 41 542 137 537 227 b 531 320 530 417 496 505 b 481 545 453 583 414 603 b 378 622 337 628 297 625 b 139 613 3 482 -28 329 b -35 292 -36 251 -22 214 b -7 175 29 153 68 144 b 156 123 251 146 332 183 b 353 194 373 206 392 220 b 401 227 390 236 383 239 b 372 243 359 241 350 234 b 313 207 275 184 232 172 b 189 159 142 154 98 160 b 54 166 21 190 5 232 b -8 268 -4 309 4 345 b 22 422 68 491 130 540 b 190 588 277 625 355 607 b 447 587 457 467 462 390 b 468 300 461 210 471 120 b 481 39 507 -58 578 -107 b 658 -162 763 -122 826 -62 b 896 4 935 96 959 187 b 966 214 972 241 977 269 b 979 240 981 210 981 180 b 981 78 962 -25 922 -120 b 887 -205 830 -289 758 -352 b 681 -299 609 -239 530 -188 b 486 -159 439 -132 389 -115 b 346 -100 294 -89 251 -109 b 166 -147 182 -267 219 -333 b 266 -419 355 -472 450 -487 b 576 -508 694 -469 790 -397 b 812 -410 834 -423 857 -435 b 943 -479 1048 -511 1145 -486 b 1183 -476 1223 -454 1237 -415 b 1248 -382 1234 -342 1207 -319 z m 489 -454 b 397 -449 311 -397 264 -317 b 242 -280 226 -236 229 -192 b 231 -171 237 -150 252 -134 b 271 -115 297 -112 322 -115 b 375 -121 425 -147 470 -173 b 515 -200 558 -230 600 -261 b 647 -296 694 -332 743 -365 b 671 -423 584 -459 489 -454 z"},"c":{"x_min":0,"x_max":170,"ha":170,"o":"m 172 95 b 158 68 143 39 118 19 b 106 9 88 0 75 14 b 66 24 60 40 57 54 b 51 85 53 120 64 150 b 68 162 74 179 85 187 b 90 191 91 187 95 180 b 98 174 100 166 102 159 b 105 150 132 151 130 162 b 128 181 122 201 104 211 b 80 224 47 216 26 202 b -18 171 -25 105 -13 56 b 0 7 50 -31 101 -13 b 147 2 175 50 194 91 b 198 100 176 102 172 95 z"},"!":{"x_min":0,"x_max":175,"ha":175,"o":"m 124 218 b 124 287 126 356 123 424 b 121 452 53 452 52 424 b 48 356 51 287 51 218 b 52 183 52 149 53 115 b 54 82 51 45 60 13 b 65 -4 111 -3 116 13 b 125 45 122 82 122 115 b 123 149 123 183 124 218 z m 57 -65 b 56 -82 55 -101 59 -118 b 61 -127 64 -132 73 -136 b 83 -140 94 -141 103 -136 b 117 -128 117 -118 118 -103 b 118 -90 119 -78 120 -65 b 120 -40 59 -40 57 -65 z"},"/":{"x_min":0,"x_max":360,"ha":360,"o":"m 241 462 b 202 369 168 274 134 179 b 118 131 101 83 86 36 b 79 13 71 -10 64 -33 b 57 -56 48 -81 50 -105 b 52 -127 105 -130 111 -110 b 169 80 241 265 309 451 b 320 480 251 486 241 462 z"},"[":{"x_min":0,"x_max":267,"ha":267,"o":"m 212 -125 b 204 -118 191 -119 182 -122 b 169 -125 156 -101 152 -92 b 142 -70 139 -46 136 -22 b 129 30 127 83 124 135 b 119 242 114 349 113 456 b 112 486 114 515 115 544 b 115 554 115 569 122 576 b 131 584 149 578 159 575 b 168 572 185 581 170 586 b 148 593 126 597 104 589 b 79 581 70 556 65 532 b 52 468 51 401 50 336 b 49 269 51 202 54 135 b 56 71 56 4 69 -60 b 76 -92 88 -122 118 -139 b 144 -155 184 -160 210 -142 b 217 -138 219 -131 212 -125 z"},"6":{"x_min":0,"x_max":354,"ha":354,"o":"m 56 33 b 56 32 56 31 57 30 b 62 0 73 -29 94 -53 b 123 -86 172 -102 214 -90 b 289 -70 338 40 274 98 b 244 124 200 132 162 122 b 145 118 129 110 115 101 b 113 174 124 246 146 316 b 159 355 174 393 194 430 b 203 447 212 465 226 478 b 242 494 268 494 277 471 b 281 464 303 466 299 475 b 286 510 240 508 212 494 b 170 473 139 428 116 388 b 66 297 45 184 51 81 b 52 65 53 49 56 33 z m 244 97 b 303 57 278 -52 211 -70 b 182 -78 156 -51 142 -28 b 125 3 119 40 117 75 b 152 109 199 128 244 97 z"},"r":{"x_min":0,"x_max":191,"ha":191,"o":"m 192 93 b 187 73 182 53 174 33 b 170 25 166 16 161 8 b 159 4 153 -4 148 -6 b 149 -6 149 -7 149 -8 b 148 -6 147 -5 146 -3 b 137 11 140 35 139 51 b 138 73 139 95 141 117 b 143 142 83 144 71 122 b 63 115 52 107 41 111 b 41 111 40 111 40 111 b 52 131 62 152 68 174 b 73 193 79 220 70 238 b 62 255 41 258 25 254 b 3 250 -14 235 -26 218 b -49 183 -50 128 -11 105 b 14 89 43 91 68 102 b 65 52 79 -22 137 -24 b 191 -26 205 52 214 91 b 216 99 193 101 192 93 z m 22 128 b 22 129 21 130 21 131 b 8 153 13 185 23 208 b 25 211 38 238 42 237 b 45 236 47 220 47 218 b 48 210 47 203 46 195 b 43 172 34 149 22 128 z"},"2":{"x_min":0,"x_max":386,"ha":386,"o":"m 108 -58 b 148 -59 185 -44 214 -19 b 249 -40 287 -58 328 -49 b 344 -45 334 -32 322 -35 b 287 -42 257 -25 227 -7 b 231 -3 235 2 238 6 b 269 46 289 95 303 144 b 317 194 326 246 325 298 b 323 379 286 507 183 501 b 136 499 98 469 81 427 b 65 388 57 321 106 304 b 115 301 131 310 117 315 b 81 330 95 396 106 423 b 120 456 147 484 185 486 b 227 488 245 452 254 417 b 265 379 267 340 265 301 b 259 221 238 141 202 70 b 194 54 185 38 174 24 b 141 36 101 39 71 17 b 56 7 44 -12 53 -31 b 62 -52 87 -58 108 -58 z m 101 13 b 121 23 143 19 163 11 b 154 2 145 -6 134 -13 b 123 -19 111 -25 98 -25 b 68 -24 85 5 101 13 z"},"{":{"x_min":0,"x_max":380,"ha":380,"o":"m 306 -84 b 295 -101 277 -128 253 -121 b 236 -116 228 -97 221 -82 b 202 -43 197 1 195 44 b 192 85 195 132 179 171 b 171 189 157 203 139 212 b 171 250 187 303 199 350 b 206 380 214 410 221 440 b 225 457 242 524 269 496 b 275 491 297 494 289 503 b 271 525 236 519 214 506 b 184 489 171 443 160 413 b 136 343 117 255 55 208 b 45 201 52 189 60 184 b 70 178 84 177 96 179 b 99 177 102 175 104 173 b 110 165 113 155 116 145 b 121 122 121 98 122 76 b 124 30 125 -18 143 -61 b 160 -102 193 -133 239 -140 b 282 -145 307 -122 329 -87 b 334 -79 311 -76 306 -84 z"},"9":{"x_min":0,"x_max":431,"ha":431,"o":"m 363 358 b 359 377 353 395 347 413 b 340 430 334 448 319 460 b 312 465 295 467 291 458 b 289 454 287 451 286 448 b 216 506 94 456 59 377 b 41 336 50 283 90 260 b 135 234 189 253 224 286 b 245 305 263 330 277 356 b 285 370 292 385 297 401 b 299 405 300 410 301 416 b 304 402 305 388 307 374 b 311 346 314 317 315 288 b 317 230 314 173 301 117 b 291 72 275 15 234 -12 b 201 -33 161 -21 140 11 b 110 55 121 126 167 154 b 173 158 172 163 167 167 b 161 171 151 170 145 167 b 93 143 70 82 82 27 b 95 -32 149 -64 208 -63 b 275 -61 326 -21 350 40 b 375 102 382 173 380 239 b 379 279 373 319 363 358 z m 263 384 b 252 358 237 334 219 312 b 201 291 179 270 151 265 b 123 259 97 272 84 298 b 33 400 204 512 278 427 b 274 413 270 398 263 384 z"}," ":{"x_min":0,"x_max":615,"ha":615,"o":""},"I":{"x_min":0,"x_max":574,"ha":574,"o":"m 495 440 b 489 496 477 570 427 606 b 374 645 301 612 251 583 b 195 549 148 503 107 452 b 65 399 29 342 3 279 b -21 220 -40 149 -30 84 b -6 -82 214 -22 310 36 b 322 43 300 51 292 46 b 205 -5 14 -63 -4 89 b -11 148 4 210 25 265 b 48 324 81 379 119 429 b 155 477 197 522 246 556 b 289 586 370 637 416 588 b 434 568 441 540 444 514 b 448 482 451 448 451 415 b 450 346 442 276 435 207 b 419 56 406 -96 395 -248 b 355 -260 315 -273 275 -287 b 260 -293 278 -303 288 -300 b 323 -287 358 -276 394 -267 b 394 -269 394 -271 394 -273 b 392 -300 463 -301 465 -273 b 466 -265 466 -258 467 -251 b 493 -247 518 -242 544 -236 b 550 -235 558 -232 556 -225 b 553 -217 540 -217 535 -218 b 513 -220 491 -224 469 -229 b 480 -84 489 62 496 207 b 499 285 504 363 495 440 z"},"H":{"x_min":0,"x_max":907,"ha":907,"o":"m 2 -49 b 67 -61 134 -6 184 28 b 238 64 291 101 344 137 b 340 95 336 53 333 11 b 322 -128 316 -270 339 -407 b 346 -454 356 -505 383 -545 b 412 -590 474 -615 523 -583 b 563 -557 574 -505 583 -461 b 598 -389 601 -314 594 -241 b 580 -108 536 39 435 132 b 428 138 421 144 414 150 b 414 162 415 174 416 186 b 513 252 614 314 721 363 b 721 322 722 280 723 239 b 726 128 729 16 742 -94 b 749 -155 758 -216 776 -276 b 780 -291 824 -290 823 -272 b 819 -163 807 -55 804 54 b 800 164 798 273 797 383 b 797 387 797 391 797 395 b 853 417 911 434 970 446 b 1007 453 1044 458 1081 460 b 1116 463 1156 466 1190 455 b 1222 445 1250 414 1240 379 b 1237 367 1263 365 1266 374 b 1284 434 1221 469 1171 475 b 1106 483 1038 475 974 463 b 913 452 854 435 796 413 b 796 466 796 519 795 572 b 795 600 724 600 723 572 b 721 509 720 446 721 383 b 678 364 636 343 596 320 b 534 286 475 249 417 211 b 420 265 422 318 422 372 b 423 408 420 443 415 478 b 413 496 370 496 369 478 b 362 400 359 322 353 245 b 351 227 350 208 348 190 b 272 225 184 229 105 192 b 54 167 10 128 -18 79 b -40 39 -64 -37 2 -49 z m 476 -559 b 477 -559 477 -559 477 -559 b 477 -559 476 -559 476 -559 z m 529 -108 b 547 -176 557 -245 557 -315 b 556 -379 550 -450 523 -509 b 516 -525 505 -543 490 -554 b 487 -556 484 -557 481 -558 b 480 -558 480 -557 479 -557 b 474 -554 475 -554 472 -552 b 441 -525 429 -478 421 -440 b 395 -318 396 -191 401 -67 b 404 -7 408 52 411 112 b 469 52 507 -29 529 -108 z m 14 82 b 74 181 199 229 307 184 b 321 178 334 172 346 164 b 346 164 346 163 346 163 b 310 138 274 113 238 89 b 209 69 180 49 150 29 b 120 9 90 -13 57 -26 b 42 -31 23 -38 7 -34 b -9 -29 -14 -11 -14 4 b -14 31 -1 59 14 82 z"},"4":{"x_min":0,"x_max":420,"ha":420,"o":"m 61 20 b 77 7 102 12 118 21 b 139 33 154 54 164 75 b 174 95 181 117 186 140 b 197 143 207 146 218 149 b 238 156 259 162 280 169 b 282 130 285 90 290 51 b 296 9 299 -43 323 -79 b 332 -92 364 -93 368 -76 b 373 -54 369 -32 367 -11 b 365 11 363 33 361 54 b 357 97 355 140 353 183 b 350 270 354 357 351 444 b 350 472 282 472 280 444 b 273 358 275 271 279 185 b 251 177 223 168 195 159 b 193 159 191 158 189 158 b 195 189 197 221 199 251 b 203 328 200 405 192 481 b 191 490 169 490 170 481 b 178 377 182 267 164 163 b 163 159 163 154 162 149 b 145 143 128 137 113 128 b 91 117 72 100 60 79 b 51 61 43 34 61 20 z m 85 75 b 96 94 114 109 134 119 b 141 123 149 127 157 130 b 149 94 134 58 106 36 b 94 27 77 23 76 43 b 75 54 80 65 85 75 z"},"D":{"x_min":0,"x_max":1599,"ha":1599,"o":"m 27 158 b 46 148 66 139 86 130 b 160 99 241 77 318 46 b 310 -55 311 -157 321 -258 b 330 -333 346 -435 424 -469 b 459 -485 500 -481 529 -455 b 556 -431 577 -395 589 -362 b 596 -343 602 -324 605 -304 b 700 -297 796 -274 889 -250 b 983 -226 1076 -197 1167 -162 b 1250 -130 1333 -92 1406 -40 b 1470 6 1547 72 1546 158 b 1546 244 1463 296 1394 327 b 1221 405 1024 425 836 428 b 642 431 449 409 262 364 b 178 344 84 324 13 273 b -13 254 -55 218 -22 187 b -8 174 10 166 27 158 z m 508 -429 b 497 -438 479 -454 464 -446 b 449 -439 440 -421 432 -408 b 388 -329 388 -227 384 -139 b 382 -87 383 -36 385 16 b 439 -13 488 -48 527 -99 b 541 -117 552 -137 560 -157 b 557 -159 554 -162 551 -164 b 535 -178 520 -193 507 -210 b 496 -225 483 -243 484 -262 b 486 -301 539 -306 576 -305 b 575 -313 573 -320 571 -327 b 560 -364 539 -405 508 -429 z m 580 -271 b 576 -271 571 -271 566 -271 b 560 -271 547 -272 541 -266 b 535 -259 539 -246 542 -238 b 548 -222 559 -206 572 -192 b 579 -218 582 -244 580 -271 z m 33 255 b 50 267 69 277 88 285 b 126 300 168 310 208 321 b 298 344 389 361 481 373 b 662 396 846 399 1027 378 b 1113 368 1199 353 1281 324 b 1321 310 1360 294 1396 272 b 1425 255 1452 232 1466 201 b 1502 123 1431 48 1374 3 b 1309 -49 1232 -86 1155 -117 b 985 -186 808 -235 628 -265 b 621 -266 615 -267 609 -268 b 610 -235 605 -203 594 -172 b 604 -164 614 -156 623 -150 b 692 -99 768 -60 849 -32 b 869 -26 889 -20 909 -14 b 916 -12 953 1 954 -10 b 955 -25 991 -24 990 -10 b 988 28 927 13 905 8 b 861 -3 818 -16 777 -33 b 708 -61 641 -96 581 -141 b 551 -81 500 -33 444 2 b 425 14 405 25 385 35 b 387 79 389 123 392 166 b 394 215 398 263 403 312 b 404 329 361 329 358 312 b 339 230 326 147 319 64 b 289 75 259 86 228 96 b 189 110 149 123 110 139 b 90 147 70 156 51 166 b 35 174 3 186 -2 205 b -8 226 19 245 33 255 z"},"^":{"x_min":0,"x_max":269,"ha":269,"o":"m 219 329 b 216 356 209 384 198 409 b 188 433 176 459 149 466 b 133 469 111 467 99 455 b 91 446 85 432 80 421 b 68 394 53 365 50 336 b 48 318 87 320 94 329 b 109 345 119 364 129 383 b 131 387 133 391 135 395 b 136 391 138 387 139 383 b 146 364 150 344 158 324 b 165 306 221 306 219 329 z"},"0":{"x_min":0,"x_max":368,"ha":368,"o":"m 85 -12 b 112 -55 160 -78 210 -60 b 256 -44 282 0 296 44 b 328 148 323 261 287 362 b 271 407 251 457 204 477 b 164 494 121 485 94 451 b 68 418 57 374 66 334 b 64 331 63 329 62 326 b 52 267 48 207 51 147 b 52 94 57 34 85 -12 z m 116 443 b 128 460 146 473 168 471 b 188 469 206 457 220 442 b 248 410 261 364 269 323 b 286 238 282 149 258 66 b 247 31 232 -9 200 -30 b 184 -40 171 -41 157 -28 b 144 -16 137 0 131 16 b 115 64 115 119 115 169 b 115 198 117 227 119 255 b 142 241 168 234 194 243 b 208 248 192 257 183 254 b 160 247 138 259 121 276 b 123 293 125 309 128 326 b 130 340 108 346 89 344 b 84 379 94 416 116 443 z"},"F":{"x_min":0,"x_max":848,"ha":848,"o":"m -28 -34 b -9 -54 22 -55 48 -52 b 82 -49 116 -38 148 -29 b 221 -9 293 13 367 29 b 419 41 473 52 526 55 b 523 23 521 -9 520 -40 b 490 -50 461 -59 432 -66 b 415 -70 426 -82 438 -80 b 466 -75 493 -68 519 -62 b 519 -68 519 -74 519 -80 b 519 -117 521 -154 526 -191 b 530 -226 538 -263 556 -294 b 591 -353 665 -381 731 -357 b 789 -335 830 -273 849 -216 b 867 -157 863 -94 828 -42 b 776 37 690 69 601 77 b 605 141 611 204 611 268 b 611 305 610 342 603 379 b 600 399 553 400 552 379 b 548 302 543 226 535 149 b 533 126 531 102 528 79 b 511 78 494 77 478 75 b 404 66 331 48 259 28 b 189 9 119 -15 48 -28 b 37 -30 24 -32 14 -27 b -1 -18 -1 1 3 15 b 12 45 32 72 50 96 b 89 149 137 195 188 235 b 296 321 421 391 549 444 b 656 488 769 519 884 534 b 975 546 1069 552 1161 542 b 1220 535 1313 523 1337 457 b 1346 430 1324 415 1305 400 b 1297 393 1307 385 1314 382 b 1324 379 1336 380 1344 387 b 1365 404 1390 422 1383 452 b 1380 466 1373 479 1364 490 b 1343 517 1310 533 1279 543 b 1193 572 1098 573 1008 569 b 915 565 821 553 730 530 b 590 497 457 439 333 368 b 220 303 108 227 26 124 b 6 100 -12 74 -27 46 b -40 21 -50 -12 -28 -34 z m 761 -17 b 806 -63 825 -128 807 -190 b 797 -222 781 -251 760 -276 b 743 -297 715 -321 687 -324 b 667 -326 646 -305 635 -290 b 614 -262 606 -225 602 -191 b 595 -142 593 -93 594 -44 b 630 -36 666 -32 703 -30 b 710 -30 724 -28 724 -18 b 724 -8 710 -7 703 -6 b 666 -3 631 -9 595 -18 b 596 6 597 30 599 54 b 659 48 718 26 761 -17 z"},"`":{"x_min":0,"x_max":154,"ha":154,"o":"m 101 454 b 101 473 102 492 103 510 b 104 530 56 530 53 510 b 49 490 49 469 52 448 b 55 430 58 411 72 399 b 78 394 105 390 104 404 b 104 421 101 437 101 454 z"},"k":{"x_min":0,"x_max":242,"ha":242,"o":"m 245 90 b 235 71 223 51 207 35 b 198 26 184 14 172 24 b 166 30 158 43 155 51 b 146 70 142 92 132 111 b 126 122 119 130 109 136 b 113 136 116 137 119 137 b 137 140 157 147 172 157 b 186 166 203 180 205 198 b 206 213 194 224 180 229 b 143 240 106 211 86 184 b 75 169 66 154 58 137 b 57 149 57 160 56 171 b 92 224 134 273 168 328 b 198 378 236 462 185 512 b 163 534 130 538 102 528 b 70 517 47 489 30 460 b -6 400 -14 327 -17 259 b -18 213 -16 168 -11 123 b -6 81 -1 29 25 -5 b 32 -14 65 -16 68 -2 b 75 25 69 54 64 82 b 66 92 71 103 73 110 b 75 114 76 118 78 122 b 79 116 80 109 81 105 b 85 91 89 78 93 64 b 102 36 125 18 153 8 b 208 -12 245 45 267 87 b 271 95 249 98 245 90 z m 71 391 b 78 419 87 446 101 472 b 107 482 114 492 122 501 b 134 513 145 515 159 504 b 186 482 185 441 177 411 b 169 381 155 353 139 327 b 114 287 83 250 55 212 b 53 271 56 333 71 391 z m 133 203 b 143 211 168 226 178 208 b 184 196 173 183 164 176 b 155 167 143 160 131 157 b 117 153 109 157 97 161 b 107 177 118 192 133 203 z"},"u":{"x_min":0,"x_max":281,"ha":281,"o":"m 282 97 b 272 75 262 51 247 32 b 243 29 240 25 236 22 b 231 17 228 14 223 17 b 217 21 216 42 216 48 b 211 101 217 154 219 207 b 221 234 155 236 147 210 b 147 210 146 209 146 209 b 138 175 129 141 119 108 b 114 93 110 77 103 62 b 98 49 88 25 73 20 b 55 14 56 84 55 96 b 55 131 61 166 59 202 b 57 229 -10 229 -12 202 b -15 158 -18 110 -8 67 b 1 31 26 -9 69 1 b 106 10 122 46 134 78 b 137 89 141 101 144 112 b 145 107 145 101 146 96 b 150 65 159 26 187 7 b 247 -32 287 51 305 94 b 309 103 286 106 282 97 z"},"]":{"x_min":0,"x_max":266,"ha":266,"o":"m 206 505 b 202 532 198 572 170 586 b 147 598 120 593 96 586 b 82 581 99 572 108 575 b 116 577 132 583 141 579 b 149 575 151 562 151 554 b 154 529 154 503 154 478 b 154 425 153 372 151 320 b 149 266 146 212 143 157 b 141 105 139 52 134 0 b 131 -27 129 -57 119 -82 b 115 -93 100 -126 85 -122 b 75 -119 63 -118 55 -125 b 48 -131 49 -138 56 -142 b 80 -158 113 -155 138 -145 b 165 -133 183 -111 192 -83 b 210 -23 209 44 212 106 b 214 173 216 240 216 307 b 217 373 217 440 206 505 z"},"U":{"x_min":0,"x_max":1395,"ha":1395,"o":"m 1376 -23 b 1370 -26 1372 -31 1376 -34 b 1381 -37 1389 -36 1395 -34 b 1430 -16 1463 -48 1476 -79 b 1487 -107 1486 -140 1475 -168 b 1465 -191 1439 -228 1409 -225 b 1382 -221 1361 -186 1351 -164 b 1323 -107 1317 -41 1314 22 b 1312 56 1312 90 1312 124 b 1345 215 1364 314 1343 407 b 1340 425 1334 441 1327 457 b 1325 467 1321 477 1315 486 b 1309 496 1296 498 1286 498 b 1279 497 1261 493 1262 482 b 1268 441 1259 396 1255 355 b 1251 308 1246 262 1242 215 b 1238 149 1234 82 1238 15 b 1195 -75 1138 -161 1067 -231 b 1024 -275 973 -314 916 -338 b 888 -350 859 -358 829 -361 b 801 -365 769 -366 745 -348 b 692 -307 706 -223 717 -167 b 730 -104 751 -42 776 17 b 828 139 899 253 969 365 b 986 393 1004 421 1021 450 b 1036 475 1055 502 1064 530 b 1072 555 1069 583 1044 597 b 1018 611 982 608 954 605 b 882 599 810 573 741 550 b 671 525 602 498 533 470 b 399 416 267 359 142 289 b 85 257 25 224 -18 174 b -37 152 -48 127 -30 101 b -14 78 14 65 39 55 b 162 7 294 54 397 127 b 424 146 449 166 473 189 b 488 203 447 213 436 201 b 391 155 345 113 286 85 b 226 56 157 44 92 58 b 61 64 27 75 6 99 b -21 129 3 157 26 180 b 74 227 135 259 193 290 b 318 357 449 413 581 465 b 648 492 714 518 782 540 b 818 552 853 563 890 572 b 924 581 959 589 995 587 b 1009 586 1028 584 1029 566 b 1029 550 1017 534 1009 523 b 991 496 972 471 953 445 b 915 391 878 337 842 281 b 772 173 709 60 668 -63 b 658 -93 650 -123 644 -154 b 636 -187 628 -223 631 -258 b 636 -325 678 -378 745 -392 b 805 -403 870 -385 924 -362 b 976 -339 1023 -306 1065 -268 b 1138 -203 1197 -121 1243 -34 b 1244 -41 1245 -48 1246 -55 b 1258 -127 1288 -206 1360 -238 b 1431 -269 1498 -215 1509 -144 b 1515 -107 1505 -67 1478 -40 b 1451 -13 1410 -6 1376 -23 z"},"o":{"x_min":0,"x_max":206,"ha":206,"o":"m 194 103 b 184 100 172 97 159 95 b 160 102 159 110 159 117 b 153 171 131 254 61 248 b 9 244 -16 185 1 140 b -5 138 -10 134 -11 129 b -19 97 -20 59 -6 28 b 7 -2 37 -16 68 -16 b 124 -15 152 30 158 79 b 175 81 191 85 207 91 b 222 96 204 107 194 103 z m 101 24 b 94 16 81 5 69 8 b 58 12 53 27 50 36 b 44 55 44 75 46 95 b 61 87 78 83 94 80 b 105 79 116 78 128 78 b 124 57 115 39 101 24 z m 130 92 b 101 91 70 97 49 114 b 50 117 50 121 51 124 b 53 134 41 140 27 142 b 18 166 22 197 38 217 b 66 251 98 222 113 193 b 127 165 134 127 130 92 z"},"N":{"x_min":0,"x_max":986,"ha":986,"o":"m 286 442 b 286 441 286 441 286 441 b 281 348 278 255 272 162 b 266 76 255 -14 214 -92 b 195 -129 164 -166 120 -173 b 80 -181 41 -155 20 -122 b -4 -86 -10 -42 -9 1 b -8 43 0 87 19 125 b 37 161 71 203 115 203 b 133 203 152 195 164 181 b 182 160 179 135 170 111 b 164 94 206 92 207 108 b 207 130 208 156 197 176 b 189 191 174 203 158 210 b 122 225 81 219 50 197 b -27 144 -49 26 -31 -61 b -22 -104 -1 -144 37 -168 b 72 -191 116 -195 155 -179 b 246 -140 273 -20 287 68 b 295 127 298 186 300 246 b 302 286 304 326 305 366 b 310 351 315 337 319 323 b 331 284 343 245 354 206 b 376 125 398 44 428 -34 b 456 -106 490 -183 546 -238 b 601 -291 680 -321 755 -297 b 827 -274 863 -198 886 -131 b 912 -52 922 34 922 118 b 922 202 910 289 879 368 b 854 436 806 499 734 522 b 668 542 580 518 556 448 b 544 413 555 375 589 357 b 620 341 659 347 684 372 b 693 380 669 385 662 379 b 635 352 595 362 580 396 b 567 427 584 463 607 484 b 657 531 729 519 779 478 b 833 434 860 365 876 299 b 894 225 900 148 896 71 b 893 -1 881 -75 855 -143 b 833 -200 793 -277 723 -280 b 661 -282 611 -235 579 -187 b 542 -131 516 -66 494 -3 b 467 72 444 149 420 225 b 396 301 374 383 325 448 b 319 456 283 457 286 442 z"},"+":{"x_min":0,"x_max":304,"ha":304,"o":"m 242 223 b 226 224 209 224 192 224 b 191 264 192 305 193 345 b 194 373 124 374 121 345 b 118 304 118 262 119 220 b 99 218 78 215 58 212 b 43 209 53 198 64 199 b 82 201 101 203 120 205 b 120 200 120 195 121 189 b 122 164 125 139 128 113 b 132 87 135 62 152 40 b 159 31 188 31 193 44 b 203 67 199 92 197 116 b 195 142 194 167 193 193 b 192 198 192 204 192 209 b 209 210 226 210 242 209 b 258 208 258 223 242 223 z"},"G":{"x_min":0,"x_max":842,"ha":842,"o":"m 50 254 b 64 263 39 271 31 265 b -5 243 -33 207 -35 164 b -37 122 -11 91 26 76 b 67 59 114 61 156 66 b 162 67 168 68 174 68 b 167 42 163 15 165 -12 b 169 -58 191 -101 231 -126 b 315 -178 417 -132 492 -87 b 573 -38 646 24 707 96 b 711 100 714 104 717 108 b 713 57 711 5 702 -46 b 689 -113 660 -175 616 -227 b 567 -284 502 -328 430 -354 b 387 -339 346 -319 306 -295 b 270 -273 234 -249 198 -226 b 164 -206 128 -182 88 -178 b 59 -175 24 -184 7 -211 b -12 -241 2 -281 21 -307 b 61 -363 126 -396 192 -410 b 284 -430 383 -419 473 -385 b 520 -397 568 -405 616 -410 b 703 -418 799 -419 880 -383 b 914 -368 946 -344 960 -309 b 973 -277 971 -241 949 -213 b 943 -206 918 -210 926 -221 b 949 -251 945 -294 925 -324 b 903 -357 863 -375 825 -385 b 737 -408 641 -401 552 -386 b 534 -383 516 -379 499 -375 b 552 -352 601 -320 642 -282 b 701 -226 746 -154 764 -74 b 772 -36 776 4 778 43 b 779 81 778 117 769 154 b 765 171 723 168 721 151 b 721 149 721 147 721 146 b 672 81 613 22 548 -27 b 516 -51 481 -73 445 -93 b 406 -114 363 -133 318 -126 b 279 -120 250 -95 238 -58 b 225 -18 232 27 244 66 b 246 73 248 79 251 86 b 271 92 291 98 311 105 b 405 138 497 180 580 236 b 619 262 658 291 691 325 b 722 357 753 394 767 436 b 774 457 779 478 769 498 b 762 515 746 527 729 534 b 687 551 638 542 596 529 b 503 499 424 432 356 364 b 290 298 233 221 197 135 b 190 119 184 102 179 85 b 152 81 125 78 97 78 b 57 79 10 92 -4 134 b -19 181 11 230 50 254 z m 227 -381 b 161 -374 90 -350 48 -296 b 26 -267 12 -215 55 -197 b 93 -180 138 -212 169 -231 b 238 -272 303 -321 378 -353 b 386 -357 395 -360 403 -363 b 346 -381 286 -387 227 -381 z m 361 278 b 412 340 471 396 537 443 b 570 467 606 488 645 501 b 670 510 705 519 724 494 b 752 460 725 411 705 380 b 681 346 651 316 619 290 b 552 235 475 192 396 157 b 352 137 306 121 260 106 b 260 106 259 106 258 106 b 282 168 318 226 361 278 z"},"q":{"x_min":0,"x_max":275,"ha":275,"o":"m 271 -44 b 260 -35 248 -28 235 -21 b 229 -18 222 -16 216 -12 b 203 -3 210 8 217 17 b 241 45 269 70 298 91 b 309 99 289 105 282 100 b 260 85 239 68 220 50 b 214 44 204 35 196 26 b 197 82 202 139 201 196 b 200 224 137 222 132 196 b 132 192 131 189 130 185 b 109 197 85 202 59 197 b 4 186 -28 130 -18 75 b -14 49 -1 24 25 13 b 45 5 69 7 86 19 b 102 31 112 50 120 69 b 119 42 120 15 122 -11 b 126 -73 137 -142 179 -191 b 214 -231 272 -227 300 -182 b 330 -136 312 -77 271 -44 z m 93 68 b 88 57 71 19 54 25 b 41 30 41 62 41 72 b 41 105 49 143 76 163 b 92 176 109 165 124 150 b 116 121 107 94 93 68 z m 279 -175 b 273 -184 261 -200 249 -201 b 237 -201 230 -187 226 -178 b 203 -131 199 -73 197 -21 b 208 -29 224 -34 233 -40 b 255 -53 275 -71 284 -96 b 294 -121 292 -151 279 -175 z"},"d":{"x_min":0,"x_max":304,"ha":304,"o":"m 306 96 b 299 76 292 55 279 38 b 272 28 264 19 253 12 b 240 5 230 9 222 21 b 210 39 209 64 207 85 b 205 110 204 134 204 158 b 204 261 208 363 208 465 b 208 492 141 492 140 465 b 138 401 136 336 135 272 b 135 242 133 213 134 183 b 112 196 86 202 59 197 b 4 186 -28 130 -18 75 b -14 49 -1 24 25 13 b 45 5 69 7 86 19 b 107 35 118 62 127 85 b 131 95 134 105 138 116 b 139 108 140 99 142 91 b 147 64 154 34 175 14 b 191 -2 215 -12 238 -9 b 291 -2 315 46 329 92 b 332 102 308 104 306 96 z m 93 68 b 88 57 71 19 54 25 b 41 30 41 62 41 72 b 41 105 49 143 76 163 b 92 176 109 165 124 150 b 116 121 107 94 93 68 z"},"1":{"x_min":0,"x_max":325,"ha":325,"o":"m 73 363 b 86 386 102 407 120 426 b 129 436 139 444 149 453 b 159 460 173 472 185 475 b 223 481 210 344 209 323 b 208 263 205 202 204 142 b 202 80 198 17 203 -46 b 205 -73 274 -74 275 -46 b 275 12 272 69 272 126 b 272 182 271 238 267 294 b 265 322 262 350 259 378 b 256 402 252 429 241 451 b 233 466 221 482 204 488 b 185 494 166 487 150 477 b 108 449 74 411 51 366 b 46 358 69 355 73 363 z"},"5":{"x_min":0,"x_max":423,"ha":423,"o":"m 163 -97 b 333 -94 431 129 335 263 b 294 320 222 346 154 336 b 157 354 157 371 158 387 b 158 404 156 424 152 440 b 151 444 150 448 149 453 b 172 453 195 455 218 457 b 236 457 254 458 272 457 b 281 456 298 456 302 446 b 304 438 326 440 323 449 b 316 476 263 472 243 472 b 222 472 201 470 180 469 b 168 469 146 466 137 470 b 132 473 103 474 109 461 b 111 457 106 442 105 435 b 101 419 96 402 93 386 b 88 358 85 325 72 299 b 67 288 80 279 89 276 b 103 272 120 272 133 279 b 153 292 175 300 199 295 b 223 291 244 277 260 258 b 298 215 308 152 297 97 b 286 43 254 -15 207 -45 b 189 -57 167 -67 144 -65 b 113 -62 94 -37 88 -8 b 81 25 95 57 118 81 b 141 105 181 133 210 102 b 216 95 242 100 233 110 b 178 170 88 101 62 46 b 48 16 44 -25 63 -54 b 83 -87 126 -98 163 -97 z"}}}
